<?xml version="1.0" encoding="UTF-8"?>
<svg width="33px" height="33px" viewBox="0 0 33 33" version="1.1" xmlns="http://www.w3.org/2000/svg" xmlns:xlink="http://www.w3.org/1999/xlink">
    <!-- Generator: Sketch 55.2 (78181) - https://sketchapp.com -->
    <title>Facebook</title>
    <desc>Created with Sketch.</desc>
    <g id="✅-Pattern-Library" stroke="none" stroke-width="1" fill="none" fill-rule="evenodd">
        <g id="Icons---Duplicate" transform="translate(-102.000000, -1237.000000)">
            <g id="Facebook" transform="translate(102.000000, 1237.000000)">
                <path d="M21.4191,31.7309 C29.8281,29.0169 34.4451,19.9989 31.7311,11.5899 C29.0171,3.1789 19.9991,-1.4361 11.5901,1.2779 C3.1801,3.9919 -1.4369,13.0079 1.2781,21.4179 C3.9921,29.8279 13.0091,34.4449 21.4191,31.7309 Z" id="Stroke-1" stroke="#FFFFFF"></path>
                <path d="M19.9323,16.5102 L17.6903,16.5102 L17.6903,24.5042 L14.3683,24.5042 L14.3683,16.5102 L12.7873,16.5102 L12.7873,13.6862 L14.3683,13.6862 L14.3683,11.8582 C14.3683,10.5492 14.9893,8.5042 17.7203,8.5042 L20.1813,8.5142 L20.1813,11.2562 L18.3953,11.2562 C18.1043,11.2562 17.6903,11.4012 17.6903,12.0262 L17.6903,13.6862 L20.2233,13.6862 L19.9323,16.5102 Z" id="Fill-3" fill="#FFFFFF"></path>
            </g>
        </g>
    </g>
</svg>