<svg width="38" height="38" viewBox="0 0 38 38" fill="none" xmlns="http://www.w3.org/2000/svg">
<path d="M19 37.25H19.0003C23.8387 37.2445 28.4774 35.32 31.8987 31.8987C35.32 28.4774 37.2445 23.8387 37.25 19.0003V19C37.25 15.3905 36.1797 11.862 34.1743 8.86085C32.169 5.85965 29.3187 3.52051 25.984 2.13921C22.6492 0.757907 18.9798 0.396497 15.4396 1.10068C11.8995 1.80486 8.64762 3.543 6.09531 6.09531C3.543 8.64762 1.80486 11.8995 1.10068 15.4396C0.396497 18.9798 0.757907 22.6492 2.13921 25.984C3.52051 29.3187 5.85965 32.169 8.86085 34.1743C11.862 36.1797 15.3905 37.25 19 37.25ZM9.71008 5.09665C12.4599 3.25931 15.6927 2.27862 18.9998 2.27858C23.4331 2.2837 27.6833 4.04708 30.8181 7.18188C33.9529 10.3167 35.7163 14.567 35.7214 19.0003C35.7214 22.3074 34.7407 25.5402 32.9034 28.2899C31.066 31.0398 28.4545 33.183 25.399 34.4486C22.3436 35.7142 18.9815 36.0453 15.7378 35.4001C12.4942 34.7549 9.5147 33.1624 7.17617 30.8238C4.83764 28.4853 3.24508 25.5058 2.59988 22.2622C1.95468 19.0186 2.28582 15.6564 3.55142 12.601C4.81703 9.54555 6.96025 6.93402 9.71008 5.09665Z" fill="white" stroke="white" stroke-width="0.5"/>
<path d="M19 20.25H19.0003C20.6573 20.2482 22.2459 19.5892 23.4175 18.4175C24.5892 17.2459 25.2482 15.6573 25.25 14.0003V14C25.25 12.7639 24.8834 11.5555 24.1967 10.5277C23.5099 9.49988 22.5338 8.6988 21.3918 8.22576C20.2497 7.75271 18.9931 7.62894 17.7807 7.87009C16.5683 8.11125 15.4547 8.70651 14.5806 9.58058C13.7065 10.4547 13.1113 11.5683 12.8701 12.7807C12.6289 13.9931 12.7527 15.2497 13.2258 16.3918C13.6988 17.5338 14.4999 18.5099 15.5277 19.1967C16.5555 19.8834 17.7639 20.25 19 20.25ZM16.361 10.0505C17.1421 9.52862 18.0604 9.25003 18.9998 9.25C20.2592 9.25141 21.4666 9.75233 22.3571 10.6429C23.2477 11.5334 23.7486 12.7408 23.75 14.0003C23.7499 14.9396 23.4714 15.8579 22.9495 16.639C22.4275 17.4201 21.6857 18.0289 20.8177 18.3884C19.9498 18.7479 18.9947 18.842 18.0733 18.6587C17.1519 18.4755 16.3055 18.0231 15.6412 17.3588C14.9769 16.6945 14.5246 15.8481 14.3413 14.9267C14.158 14.0053 14.2521 13.0502 14.6116 12.1823C14.9711 11.3143 15.5799 10.5725 16.361 10.0505Z" fill="white" stroke="white" stroke-width="0.5"/>
<path d="M31 32.2H31.2V32C31.2 28.7644 29.9146 25.6612 27.6267 23.3733C25.3388 21.0854 22.2356 19.8 19 19.8C15.7644 19.8 12.6612 21.0854 10.3733 23.3733C8.08535 25.6612 6.8 28.7644 6.8 32V32.2H7H8.04348H8.24348V32C8.24348 29.1472 9.37675 26.4112 11.394 24.394C13.4112 22.3768 16.1472 21.2435 19 21.2435C21.8528 21.2435 24.5888 22.3768 26.606 24.394C28.6232 26.4112 29.7565 29.1472 29.7565 32V32.2H29.9565H31Z" fill="white" stroke="white" stroke-width="0.4"/>
</svg>
