<svg width="24" height="24" viewBox="0 0 24 24" xmlns="http://www.w3.org/2000/svg"><defs><linearGradient x1="0%" y1="0%" y2="100%" id="a"><stop stop-color="#009FDF" offset="0%"/><stop stop-color="#005AA8" offset="100%"/></linearGradient></defs><path d="M712.615 28.154a6.47 6.47 0 0 0-6.461-6.462 6.47 6.47 0 0 0-6.462 6.462 6.47 6.47 0 0 0 6.462 6.461 6.47 6.47 0 0 0 6.461-6.461zm7.385 12A1.86 1.86 0 0 1 718.154 42a1.81 1.81 0 0 1-1.298-.548l-4.947-4.933a10.13 10.13 0 0 1-5.755 1.789A10.15 10.15 0 0 1 696 28.154 10.15 10.15 0 0 1 706.154 18a10.15 10.15 0 0 1 10.154 10.154c0 2.048-.62 4.067-1.789 5.755l4.947 4.947c.332.331.534.807.534 1.298z" transform="translate(-696 -18)" class="fill" fill="url(#a)" fill-rule="evenodd"/></svg>
