<svg width="24" height="31" viewBox="0 0 24 31" fill="none" xmlns="http://www.w3.org/2000/svg">
<path d="M24 2.16668C24 1.81305 23.8595 1.47392 23.6095 1.22387C23.3594 0.973819 23.0203 0.833344 22.6667 0.833344H4.66667C3.42899 0.833344 2.24201 1.32501 1.36684 2.20018C0.491666 3.07535 0 4.26233 0 5.50001V25.5C0 26.7377 0.491666 27.9247 1.36684 28.7998C2.24201 29.675 3.42899 30.1667 4.66667 30.1667H22.6667C23.0203 30.1667 23.3594 30.0262 23.6095 29.7762C23.8595 29.5261 24 29.187 24 28.8333V2.16668ZM2.66667 5.50001C2.66667 4.96958 2.87738 4.46087 3.25245 4.0858C3.62753 3.71072 4.13623 3.50001 4.66667 3.50001H21.3333V20.8333H4.66667C3.95067 20.8333 3.27333 20.9933 2.66667 21.2827V5.50001ZM2.66667 25.5C2.66667 24.9696 2.87738 24.4609 3.25245 24.0858C3.62753 23.7107 4.13623 23.5 4.66667 23.5H21.3333V27.5H4.66667C4.13623 27.5 3.62753 27.2893 3.25245 26.9142C2.87738 26.5391 2.66667 26.0304 2.66667 25.5Z" fill="#6C757D"/>
</svg>
