<svg width="46" height="30" viewBox="0 0 46 30" fill="none" xmlns="http://www.w3.org/2000/svg">
<g clip-path="url(#clip0_187_24915)">
<path d="M45.7904 0H0V23.3541H45.7904V0Z" fill="white"/>
<path fill-rule="evenodd" clip-rule="evenodd" d="M5.40504 9.84133C5.40504 9.84133 9.24903 8.0615 11.9318 7.64867C14.5832 7.24062 15.5012 8.71938 15.5522 9.58619C15.6032 10.453 10.6572 19.0707 10.6572 19.0707C10.6572 19.0707 9.58646 20.7024 11.932 19.7846C13.1857 19.294 15.8073 16.7761 15.8073 16.7761L17.2351 17.1332C17.2351 17.1332 15.2973 19.6827 11.983 21.1614C9.41681 22.3065 5.71115 22.4363 5.35407 20.9065C4.92159 19.0527 5.86407 17.7451 5.86407 17.7451L8.92354 12.1362C8.92354 12.1362 9.63743 11.0652 8.82159 10.8104C8.00575 10.5555 5.40531 11.7281 5.40531 11.7281V9.84133H5.40504ZM11.7791 4.02823C11.7791 2.39469 13.1031 1.07071 14.7366 1.07071C16.3699 1.07071 17.6942 2.39469 17.6942 4.02823C17.6942 5.6615 16.3702 6.98575 14.7366 6.98575C13.1031 6.98575 11.7791 5.66177 11.7791 4.02823ZM0 0H45.7904V23.3541H0V0ZM22.8441 0.611947H45.0762V22.7421H22.8441V0.611947Z" fill="#E60020"/>
<path d="M44.7636 25.462C45.0026 25.462 45.1966 25.2682 45.1966 25.0288C45.1966 24.7898 45.0028 24.5957 44.7636 24.5957H43.154C42.9365 24.5957 42.7603 24.772 42.7603 24.9895V29.4308C42.7603 29.6482 42.9365 29.8245 43.154 29.8245C43.1763 29.8245 43.1986 29.8221 43.2198 29.8187H44.7633C45.0023 29.8187 45.1964 29.6249 45.1964 29.3857C45.1964 29.1465 45.0026 28.9527 44.7633 28.9527H43.5474V27.5097H44.7633C45.0023 27.5097 45.1964 27.3162 45.1964 27.0767C45.1964 26.8373 45.0026 26.6437 44.7633 26.6437H43.5474V25.4618H44.7636V25.462Z" fill="#727171"/>
<path d="M42.2308 28.9606H41.0765V24.9895C41.0765 24.772 40.9002 24.5957 40.6828 24.5957C40.4653 24.5957 40.2891 24.772 40.2891 24.9895V29.4308C40.2891 29.6482 40.4653 29.8245 40.6828 29.8245V29.8266H42.2308C42.47 29.8266 42.6641 29.6331 42.6641 29.3936C42.6641 29.1547 42.4703 28.9606 42.2308 28.9606Z" fill="#727171"/>
<path d="M35.2743 28.4551C35.5536 28.4551 35.7801 28.2287 35.7801 27.9494C35.7801 27.6701 35.5536 27.4436 35.2743 27.4436C34.995 27.4436 34.7686 27.6701 34.7686 27.9494C34.7686 28.2287 34.995 28.4551 35.2743 28.4551Z" fill="#727171"/>
<path d="M39.4578 26.8349C39.7163 26.6055 39.848 26.3886 39.848 25.9986C39.848 25.2037 38.9183 24.5952 37.7103 24.5952C37.6819 24.5952 37.6532 24.5958 37.6248 24.5966L37.6264 24.6021C37.6052 24.5984 37.5834 24.5963 37.5611 24.5963C37.3437 24.5963 37.1674 24.7726 37.1674 24.99V28.7214L35.6228 24.8469C35.5647 24.7043 35.4324 24.6146 35.2886 24.6035C35.287 24.6032 35.2848 24.6032 35.283 24.6032C35.2739 24.6027 35.2649 24.6021 35.2556 24.6021C35.2463 24.6021 35.2376 24.6027 35.2286 24.6032C35.2264 24.6032 35.2246 24.6032 35.223 24.6035C35.0793 24.6146 34.9471 24.7043 34.8887 24.8469L33.2095 29.0105C32.228 28.9205 31.461 28.1437 31.461 27.1986C31.461 26.1929 32.3294 25.3776 33.4007 25.3776C33.621 25.3598 33.7835 25.2133 33.7944 24.9842C33.8047 24.767 33.6155 24.5796 33.4007 24.5902C31.8542 24.5902 30.6006 25.7663 30.6006 27.2166C30.6006 28.6415 31.85 29.7844 33.3606 29.8237C33.5491 29.8731 33.7495 29.7767 33.8249 29.5914L35.2538 26.0488L36.5661 29.3397C36.5743 29.3652 36.5841 29.3897 36.5953 29.4135L36.612 29.4558L36.6152 29.4547C36.7355 29.6772 36.9712 29.828 37.242 29.828C37.6355 29.828 37.9546 29.5089 37.9546 29.1149V25.478C37.9591 25.478 37.9631 25.4777 37.9676 25.4777C38.5007 25.4777 38.9332 25.7352 38.9332 26.0525C38.9332 26.246 38.7688 26.412 38.5227 26.516C38.3677 26.5816 38.2588 26.7353 38.2588 26.9143C38.2588 27.116 38.3971 27.2854 38.5843 27.3332C39.0115 27.4407 39.3221 27.7941 39.3221 28.2146C39.3221 28.6035 39.0295 28.9083 38.7006 29.0527C38.5519 29.1157 38.4478 29.2625 38.4478 29.4343C38.4478 29.6628 38.6332 29.8481 38.8617 29.8481C39.4716 29.8489 39.8862 29.2229 39.8862 29.2229C40.7963 27.6786 39.4578 26.8349 39.4578 26.8349Z" fill="#727171"/>
<path d="M26.9369 25.68C27.2162 25.68 27.4427 25.4536 27.4427 25.1742C27.4427 24.8949 27.2162 24.6685 26.9369 24.6685C26.6576 24.6685 26.4312 24.8949 26.4312 25.1742C26.4312 25.4536 26.6576 25.68 26.9369 25.68Z" fill="#727171"/>
<path d="M27.3301 29.3745L27.3333 26.194C27.3333 25.9765 27.157 25.8003 26.9396 25.8003C26.7222 25.8003 26.5459 25.9765 26.5459 26.194V29.3777C26.5467 29.6068 26.6824 29.7892 26.9216 29.7892C27.353 29.7892 27.3301 29.3745 27.3301 29.3745Z" fill="#727171"/>
<path d="M29.8291 27.1325L27.946 27.1293C27.7285 27.1293 27.5522 27.3056 27.5522 27.523C27.5522 27.7402 27.7285 27.9167 27.946 27.9167H29.832C30.0611 27.9159 30.2437 27.78 30.2437 27.5411C30.244 27.1099 29.8291 27.1325 29.8291 27.1325Z" fill="#727171"/>
<path d="M6.12354 25.6407C6.30248 25.6407 6.4477 25.4958 6.4477 25.3165C6.4477 25.1373 6.30274 24.9921 6.12354 24.9921H2.41336C2.39637 24.8047 2.23867 24.6576 2.04646 24.6576C1.85425 24.6576 1.69681 24.8047 1.67955 24.9921H1.24416C1.06522 24.9921 0.919997 25.1373 0.919997 25.3165C0.919997 25.4958 1.06522 25.6407 1.24416 25.6407H1.56646C1.45602 25.8735 1.24124 26.0944 0.826281 26.1425C0.612829 26.1565 0.45752 26.3073 0.45752 26.5112C0.45752 26.7151 0.627431 26.9023 0.826281 26.88C1.03177 26.8588 1.21071 26.8165 1.36681 26.7589V29.6002C1.36681 29.8041 1.53194 29.9689 1.73557 29.9689C1.9392 29.9689 2.10433 29.8041 2.10433 29.6002V28.9407H4.99203C5.16566 28.9407 5.30663 28.7997 5.30663 28.6258C5.30663 28.4519 5.16593 28.3112 4.99203 28.3112H2.1038V27.8302H4.9915C5.16513 27.8302 5.3061 27.6895 5.3061 27.5156C5.3061 27.3417 5.1654 27.201 4.9915 27.201H2.1038V26.7374L5.58115 26.7353L5.58062 29.1698C5.58062 29.271 5.49858 29.353 5.39717 29.353L4.86593 29.3535C4.6923 29.3535 4.55132 29.4942 4.55132 29.6681C4.55132 29.842 4.69203 29.983 4.86593 29.983L5.7654 29.9777C6.07071 29.9777 6.3184 29.7303 6.3184 29.4247L6.31867 26.4523C6.31867 26.2487 6.15354 26.0835 5.94991 26.0835L2.17469 26.0888C2.2615 25.9388 2.31778 25.7841 2.35416 25.6407H6.12354Z" fill="#727171"/>
<path d="M7.49229 28.3274C7.34069 28.3274 7.21777 28.4541 7.21777 28.6099V29.5391C7.21777 29.6952 7.34069 29.8216 7.49229 29.8216C7.64388 29.8216 7.7668 29.695 7.7668 29.5391V28.6099C7.76653 28.4538 7.64388 28.3274 7.49229 28.3274Z" fill="#727171"/>
<path d="M8.95491 28.3274C8.80332 28.3274 8.68066 28.4541 8.68066 28.6099V29.5391C8.68066 29.6952 8.80332 29.8216 8.95491 29.8216C9.1065 29.8216 9.22943 29.695 9.22943 29.5391V28.6099C9.22943 28.4538 9.1065 28.3274 8.95491 28.3274Z" fill="#727171"/>
<path d="M10.4882 28.6981L10.4866 28.0173C10.4866 27.8811 10.3762 27.7707 10.24 27.7707H9.58716C9.45097 27.7707 9.34053 27.8811 9.34053 28.0173C9.34053 28.1535 9.45097 28.2637 9.58716 28.2637H9.81442V28.582C9.81442 28.582 9.80566 28.9298 9.52026 29.0642C9.37477 29.1361 9.33203 29.2476 9.33203 29.3859C9.33203 29.5896 9.49849 29.7791 9.70079 29.7547C9.78416 29.7446 9.87893 29.7125 9.91796 29.6838C10.4686 29.3859 10.4882 28.6981 10.4882 28.6981Z" fill="#727171"/>
<path d="M12.4016 29.0642C12.1162 28.9296 12.1074 28.582 12.1074 28.582V28.2637H12.3347C12.4708 28.2637 12.5813 28.1535 12.5813 28.0173C12.5813 27.8811 12.4708 27.7707 12.3347 27.7707H11.6818C11.5456 27.7707 11.4352 27.8811 11.4352 28.0173L11.4336 28.6981C11.4336 28.6981 11.4532 29.3859 12.0039 29.6838C12.0429 29.7122 12.1377 29.7446 12.221 29.7547C12.4231 29.7794 12.5898 29.5896 12.5898 29.3859C12.5898 29.2479 12.547 29.1361 12.4016 29.0642Z" fill="#727171"/>
<path d="M11.9791 27.6289C12.2844 27.6289 12.5321 27.3812 12.5321 27.0759V25.5558C12.5321 25.2504 12.2844 25.003 11.9791 25.003L11.3106 25.0041C11.3069 24.7999 11.1452 24.6353 10.9464 24.6353C10.7467 24.6353 10.585 24.8007 10.5821 25.0057L9.87381 25.0067C9.5685 25.0067 9.3208 25.2547 9.3208 25.56V27.0719C9.3208 27.3773 9.5685 27.625 9.87381 27.625L10.6267 27.6263L10.6251 29.241C10.6251 29.3318 10.5519 29.4048 10.4613 29.4048L10.4143 29.4064C10.262 29.4064 10.1385 29.5298 10.1385 29.6822C10.1385 29.8343 10.262 29.9581 10.4143 29.9581L10.8089 29.9642C11.0804 29.9642 11.3005 29.7441 11.3005 29.4725L11.3008 27.6273L11.9791 27.6289ZM10.0583 26.8168V26.6156H11.27C11.4436 26.6156 11.5846 26.4746 11.5846 26.3007C11.5846 26.1268 11.4436 25.9861 11.27 25.9861H10.0583V25.8146C10.0583 25.7132 10.1406 25.6314 10.2418 25.6314L11.6112 25.6272C11.7123 25.6272 11.7946 25.7097 11.7946 25.8106V26.8205C11.7946 26.9219 11.7123 27.0037 11.6112 27.0037L10.2418 27C10.1404 27.0005 10.0583 26.9182 10.0583 26.8168Z" fill="#727171"/>
<path d="M8.92623 26.8906C8.72261 26.8906 8.55747 27.0558 8.55747 27.2594L8.55694 27.4943C8.55694 27.5671 8.49774 27.6266 8.42473 27.6266H8.17172C8.12924 27.6266 8.095 27.592 8.095 27.5498C8.095 27.5286 8.10349 27.5097 8.11703 27.4959L9.11154 26.2423C9.24137 26.0854 9.2196 25.8531 9.06269 25.723C8.90579 25.5935 8.67349 25.6152 8.5434 25.7719L8.27712 26.1058H8.12818C8.0857 26.1058 8.05146 26.0716 8.05146 26.0291C8.05146 26.0079 8.05995 25.989 8.07349 25.9752L8.65092 25.2512C8.78075 25.0943 8.75898 24.862 8.60207 24.7322C8.44544 24.6024 8.21287 24.6242 8.08305 24.7811L7.22287 25.8512C7.14349 25.945 7.0957 26.066 7.0957 26.1982C7.0957 26.4953 7.3365 26.7358 7.63331 26.7358H7.77376L7.26615 27.3719C7.18703 27.4657 7.13898 27.587 7.13898 27.7192C7.13898 28.016 7.37977 28.2568 7.67659 28.2568H7.88924V29.636C7.88924 29.8221 8.04004 29.9732 8.22615 29.9732C8.41225 29.9732 8.56305 29.8224 8.56305 29.636V28.2568H8.80119C9.07119 28.2568 9.28969 28.0381 9.28969 27.7681L9.29446 27.2596C9.29473 27.0558 9.12986 26.8906 8.92623 26.8906Z" fill="#727171"/>
<path fill-rule="evenodd" clip-rule="evenodd" d="M15.378 25.5127C15.4258 25.5581 15.4518 25.6253 15.4518 25.7124L16.4702 25.7302C16.4702 25.6243 16.4981 25.5573 16.5483 25.5127H15.378ZM15.3186 26.4632H16.612C16.5223 26.4244 16.4705 26.3445 16.4705 26.224H15.4521C15.4518 26.3421 15.4043 26.4239 15.3186 26.4632ZM17.371 28.149C17.3718 28.148 17.3795 28.1387 17.3795 28.1103V28.0641H14.5141V28.1103C14.5141 28.1384 14.5202 28.1472 14.521 28.148L17.3559 28.1512L17.371 28.149ZM17.3795 27.5942V27.5073H14.5141V27.5942H17.3795ZM17.3795 27.043V26.9968C17.3795 26.9687 17.3734 26.9599 17.3726 26.9591L14.5378 26.9562C14.5221 26.9589 14.5144 26.9684 14.5144 26.9966V27.0427H17.3795V27.043ZM17.3015 29.2811L17.1905 29.1478L17.1077 29.065C17.0551 29.0039 17.0214 28.9338 17.0214 28.8603C17.0214 28.762 17.0538 28.6882 17.114 28.6436H16.7132V28.9739C16.7132 29.1401 16.7453 29.2046 16.7705 29.2224C16.8425 29.2588 16.9824 29.2816 17.2025 29.2816L17.3015 29.2811ZM17.4579 28.6484L17.5946 28.7708C17.6445 28.8127 17.7018 28.8749 17.7663 28.9543C17.7945 29.0124 17.804 29.0575 17.804 29.1045C17.804 29.1746 17.7844 29.229 17.7494 29.2689C17.794 29.2659 17.833 29.2627 17.8662 29.259C17.9479 29.2519 17.9718 29.232 17.9761 29.2264L17.9944 29.2006C17.9992 29.1889 18.004 29.1712 18.0082 29.1459C18.0172 29.0928 18.0215 29.0204 18.0215 28.9285C18.0215 28.7373 18.1396 28.6394 18.3332 28.6394C18.421 28.6394 18.4991 28.6638 18.5538 28.7241C18.6063 28.7989 18.6223 28.9089 18.6223 29.0421C18.6223 29.1563 18.6106 29.2707 18.587 29.3849C18.5527 29.5561 18.4587 29.6804 18.305 29.7507C18.1707 29.8158 17.8465 29.8426 17.3559 29.8426C16.8889 29.8426 16.565 29.8059 16.4041 29.721C16.2156 29.5885 16.1349 29.3626 16.1349 29.0647V28.6434H15.4412C15.4011 28.8653 15.3355 29.0464 15.2408 29.1826C15.1433 29.3397 15.0048 29.4693 14.8269 29.572C14.6676 29.6636 14.4693 29.7337 14.2335 29.7842C14.0548 29.8229 13.8682 29.8426 13.6739 29.8426C13.4692 29.8426 13.3394 29.7465 13.3394 29.5479C13.3394 29.3684 13.4456 29.2678 13.6258 29.2588C13.9444 29.2513 14.1929 29.2139 14.3726 29.1491C14.5431 29.0798 14.6641 28.9965 14.7414 28.9022C14.8038 28.8289 14.8486 28.7427 14.8749 28.6434H14.4294C14.131 28.6434 13.9585 28.5013 13.9585 28.2181V26.8882C13.9585 26.605 14.131 26.4627 14.4294 26.4627H15.0321C14.9424 26.4239 14.8906 26.344 14.8906 26.2235L14.2707 26.2227C14.1159 26.2227 14.0272 26.134 14.0272 25.9789C14.0272 25.8226 14.114 25.7299 14.2707 25.7299H14.8906C14.8906 25.624 14.9185 25.5571 14.9686 25.5125H14.1172C14.0065 25.5125 13.963 25.5563 13.963 25.6667V25.9962C13.963 26.1834 13.8605 26.2912 13.6739 26.2912C13.4872 26.2912 13.3848 26.1834 13.3848 25.9962V25.5135C13.3848 25.1774 13.5618 24.9972 13.8956 24.9972H15.6918V24.8883C15.6918 24.7035 15.7959 24.5995 15.9809 24.5995C16.1745 24.5995 16.2926 24.6974 16.2926 24.8883V24.9972H18.0435C18.2312 24.9972 18.3815 25.0622 18.4837 25.2C18.5655 25.3046 18.5997 25.4562 18.5997 25.6444C18.5997 25.7583 18.5838 25.8892 18.5525 26.0347C18.514 26.1884 18.4032 26.2689 18.2424 26.2689C18.0573 26.2689 17.9532 26.1645 17.9532 25.9795C17.9851 25.7984 17.9986 25.7012 17.9986 25.667C17.9986 25.5412 17.9564 25.5127 17.8901 25.5127H16.9534C17.0007 25.5584 17.0256 25.6258 17.0256 25.7124L17.6455 25.7302C17.8022 25.7302 17.889 25.8231 17.889 25.9792C17.889 26.1343 17.8001 26.2229 17.6455 26.2229L17.0256 26.2237C17.0256 26.3411 16.9794 26.4236 16.895 26.4629H17.4695C17.765 26.4629 17.9347 26.606 17.9347 26.8885V28.2183C17.9347 28.5005 17.765 28.6436 17.4695 28.6436H17.4491L17.4579 28.6484Z" fill="#727171"/>
<path fill-rule="evenodd" clip-rule="evenodd" d="M20.2487 27.3088V27.4375C20.1744 27.7691 20.0783 28.0665 19.9583 28.3436C20 28.2709 20.0749 28.2292 20.1821 28.2292C20.2923 28.2454 20.3438 28.2518 20.356 28.2518C20.4025 28.2518 20.4184 28.2393 20.4184 28.1835V26.8253H19.5874C19.4199 26.8253 19.3246 26.7303 19.3246 26.5625C19.3246 26.3867 19.4133 26.2771 19.5874 26.2771H19.6554V25.3787C19.6554 25.2109 19.7507 25.1158 19.9182 25.1158C20.086 25.1158 20.1813 25.2109 20.1813 25.3787V26.2771H20.4184V24.8963C20.4184 24.7266 20.5174 24.6335 20.6871 24.6335C20.8628 24.6335 20.9725 24.7221 20.9725 24.8963V25.2281H21.5847C21.7522 25.2281 21.8478 25.3232 21.8478 25.491C21.8478 25.6585 21.7525 25.7538 21.5847 25.7538H20.9725V26.2771H21.736C21.9104 26.2771 21.9991 26.387 21.9991 26.5625C21.9991 26.7303 21.9038 26.8253 21.736 26.8253H20.9725V28.1835C20.9725 28.5871 20.7593 28.8 20.356 28.8C20.296 28.8 20.2235 28.7918 20.1439 28.7756C20.0085 28.7363 19.9193 28.6497 19.9193 28.5146C19.9193 28.4697 19.9249 28.4289 19.9365 28.3933C19.9068 28.4599 19.8757 28.5258 19.8428 28.59C19.7942 28.6824 19.7138 28.7326 19.6097 28.7326C19.4337 28.7326 19.3018 28.6633 19.3018 28.4923C19.3018 28.4397 19.3105 28.3877 19.3275 28.3365C19.5126 27.9908 19.649 27.6311 19.7414 27.2474C19.7725 27.1282 19.8619 27.0677 19.9854 27.0677C20.1455 27.0682 20.2487 27.1487 20.2487 27.3088ZM21.8021 27.3008C21.7689 27.8573 21.6994 28.2704 21.5911 28.5494C21.4639 28.9083 21.2629 29.1948 20.9863 29.4088C20.6791 29.6538 20.2947 29.7993 19.8359 29.8487L19.7435 29.8492C19.5704 29.8442 19.4844 29.7239 19.4759 29.5447C19.4895 29.3875 19.5702 29.2861 19.7117 29.2572C20.0876 29.2168 20.3985 29.1037 20.6411 28.9216C20.8586 28.7578 21.0197 28.5396 21.1241 28.2661C21.2101 28.0513 21.2695 27.724 21.2993 27.2809C21.3107 27.1487 21.4118 27.0905 21.5417 27.0905C21.6813 27.0996 21.7859 27.1646 21.8021 27.3008ZM22.8741 29.0817C22.8741 29.1605 22.8349 29.2354 22.7733 29.3055C22.5906 29.5112 22.3347 29.6981 22.0116 29.8651C21.9784 29.88 21.9404 29.8943 21.9099 29.8943C21.7121 29.8943 21.6019 29.7839 21.6019 29.5864C21.6019 29.503 21.6598 29.4276 21.7376 29.3618C22.0134 29.2179 22.2333 29.0543 22.4106 28.8624C22.4884 28.8183 22.5447 28.796 22.5885 28.796C22.7714 28.796 22.8741 28.8988 22.8741 29.0817ZM23.828 28.805C23.9557 28.9001 24.0654 28.9872 24.1634 29.07C24.2831 29.1629 24.4251 29.2975 24.5897 29.4735L24.603 29.4945C24.6208 29.5391 24.6306 29.585 24.6306 29.6315C24.6306 29.7977 24.5127 29.872 24.3449 29.872C24.2738 29.872 24.2087 29.8542 24.1541 29.8142C24.0011 29.6549 23.8793 29.5367 23.7797 29.4518C23.6953 29.3785 23.5992 29.3026 23.4925 29.2253C23.4319 29.1528 23.4033 29.0881 23.4033 29.0198C23.4033 28.8502 23.4967 28.7514 23.6661 28.7514C23.7173 28.7512 23.7723 28.7732 23.828 28.805Z" fill="#727171"/>
<path fill-rule="evenodd" clip-rule="evenodd" d="M23.8411 26.4958V26.237C23.8411 26.169 23.8182 26.1465 23.7503 26.1465H22.6339C22.572 26.1465 22.5489 26.1666 22.5489 26.237V26.4958H23.8411ZM23.8411 27.3935V27.0218H22.5492V27.3935H23.8411ZM23.8411 28.2289V27.925H22.5492V28.2289C22.5492 28.2932 22.5699 28.3136 22.6342 28.3136H23.7505C23.8209 28.3136 23.8411 28.2905 23.8411 28.2289ZM24.6306 25.076C24.6306 25.2438 24.5353 25.3389 24.3675 25.3389H23.4718L23.4033 25.6208H23.9297C24.2244 25.6208 24.389 25.7705 24.389 26.0578V28.4028C24.389 28.6933 24.2255 28.8454 23.9297 28.8454H22.4597C22.164 28.8454 22.0004 28.6933 22.0004 28.4028V26.0575C22.0004 25.7705 22.165 25.6205 22.4597 25.6205H22.8282L22.8967 25.3386H21.9999C21.8321 25.3386 21.7368 25.2435 21.7368 25.0758C21.7368 24.8979 21.8239 24.7845 21.9999 24.7845H24.3673C24.5433 24.7848 24.6306 24.8981 24.6306 25.076Z" fill="#727171"/>
<path d="M38.217 17.2927C41.4451 17.2927 44.062 14.7019 44.062 11.5059C44.062 8.30996 41.4451 5.71912 38.217 5.71912C34.9889 5.71912 32.3721 8.30996 32.3721 11.5059C32.3721 14.7019 34.9889 17.2927 38.217 17.2927Z" fill="#E50020"/>
<path d="M31.7636 11.5059C31.7636 7.97708 34.6531 5.11646 38.2173 5.11646C39.7786 5.11646 41.2099 5.66522 42.3262 6.5785C40.8886 4.84832 38.7095 3.74469 36.2697 3.74469C31.9401 3.74469 28.4307 7.21938 28.4307 11.5059C28.4307 15.7922 31.9404 19.2672 36.2697 19.2672C38.709 19.2672 40.8884 18.1638 42.3262 16.4334C41.2101 17.3464 39.7786 17.8954 38.2173 17.8954C34.6529 17.8954 31.7636 15.0345 31.7636 11.5059Z" fill="#E50020"/>
<path d="M27.8083 11.5059C27.8083 6.86416 31.609 3.10141 36.2975 3.10141C38.1795 3.10141 39.9182 3.70832 41.3258 4.73442C39.4987 2.80221 36.8996 1.59398 34.0156 1.59398C28.4866 1.59398 24.0044 6.03185 24.0044 11.5059C24.0044 16.98 28.4866 21.4176 34.0156 21.4176C36.8996 21.4176 39.4987 20.2096 41.3258 18.2772C39.9179 19.3035 38.1793 19.9102 36.2975 19.9102C31.6093 19.9104 27.8083 16.1477 27.8083 11.5059Z" fill="#E50020"/>
</g>
<defs>
<clipPath id="clip0_187_24915">
<rect width="45.6637" height="30" fill="white"/>
</clipPath>
</defs>
</svg>
