<svg width="32" height="25" viewBox="0 0 32 25" fill="none" xmlns="http://www.w3.org/2000/svg">
<path d="M4 0.5C2.93913 0.5 1.92172 0.921427 1.17157 1.67157C0.421427 2.42172 0 3.43913 0 4.5L0 20.5C0 21.5609 0.421427 22.5783 1.17157 23.3284C1.92172 24.0786 2.93913 24.5 4 24.5H28C29.0609 24.5 30.0783 24.0786 30.8284 23.3284C31.5786 22.5783 32 21.5609 32 20.5V4.5C32 3.43913 31.5786 2.42172 30.8284 1.67157C30.0783 0.921427 29.0609 0.5 28 0.5H4ZM29.3333 8.5H2.66667V4.5C2.66667 4.14638 2.80714 3.80724 3.05719 3.55719C3.30724 3.30714 3.64638 3.16667 4 3.16667H28C28.3536 3.16667 28.6928 3.30714 28.9428 3.55719C29.1929 3.80724 29.3333 4.14638 29.3333 4.5V8.5ZM2.66667 11.1667H29.3333V20.5C29.3333 20.8536 29.1929 21.1928 28.9428 21.4428C28.6928 21.6929 28.3536 21.8333 28 21.8333H4C3.64638 21.8333 3.30724 21.6929 3.05719 21.4428C2.80714 21.1928 2.66667 20.8536 2.66667 20.5V11.1667Z" fill="#6C757D"/>
</svg>
