<svg width="28" height="27" viewBox="0 0 28 27" fill="none" xmlns="http://www.w3.org/2000/svg">
<path d="M11.9999 0.166687C10.1926 0.166841 8.41167 0.599173 6.80553 1.42761C5.19938 2.25605 3.81464 3.45658 2.76683 4.92903C1.71902 6.40147 1.03853 8.10315 0.782127 9.89208C0.525725 11.681 0.700849 13.5053 1.29289 15.2128C1.88493 16.9203 2.87671 18.4614 4.1855 19.7077C5.49429 20.9539 7.08212 21.8691 8.81653 22.3768C10.5509 22.8846 12.3816 22.9702 14.1559 22.6266C15.9301 22.2829 17.5964 21.52 19.0159 20.4014L25.0559 26.4427C25.3059 26.6929 25.645 26.8335 25.9987 26.8336C26.3524 26.8337 26.6917 26.6934 26.9418 26.4434C27.192 26.1933 27.3327 25.8542 27.3328 25.5005C27.3329 25.1468 27.1925 24.8075 26.9425 24.5574L20.9012 18.516C22.2185 16.8448 23.0387 14.8366 23.268 12.721C23.4972 10.6054 23.1262 8.46805 22.1975 6.55348C21.2687 4.63891 19.8197 3.0245 18.0163 1.895C16.2128 0.765496 14.1278 0.166544 11.9999 0.166687ZM18.2132 17.5414C18.1504 17.5938 18.0923 17.6519 18.0399 17.7147C16.3993 19.3095 14.1947 20.1908 11.9069 20.1666C9.61915 20.1423 7.43376 19.2144 5.82743 17.5851C4.2211 15.9559 3.32417 13.7576 3.33226 11.4697C3.34035 9.18182 4.2528 6.98992 5.87061 5.37212C7.48842 3.75431 9.68032 2.84185 11.9682 2.83376C14.2561 2.82567 16.4544 3.72261 18.0836 5.32893C19.7129 6.93526 20.6408 9.12065 20.6651 11.4085C20.6893 13.6962 19.808 15.9008 18.2132 17.5414Z" fill="#6C757D"/>
</svg>
