<svg xmlns="http://www.w3.org/2000/svg" viewBox="0 0 32 32" class="walmart-logo__spark-logo__j_b">
                                 <g fill="none" fill-rule="evenodd">
                                    <g>
                                       <g>
                                          <g>
                                             <path d="M0 0H32V32H0z" transform="translate(-56 -90) translate(0 70) translate(56 20)"></path>
                                             <g fill="#FFC220">
                                                <path d="M12.435 0c-1.06 0-1.902.592-1.902 1.31l.655 7.308c.062.436.608.78 1.247.78.654 0 1.2-.344 1.278-.78l.638-7.309C14.351.592 13.51 0 12.435 0zm-9.99 5.984c-.623-.358-1.558.078-2.088.998-.546.92-.452 1.948.187 2.306l6.639 3.101c.42.14.982-.155 1.309-.716.327-.561.296-1.2-.047-1.48l-6-4.209zm21.912 3.304c.623-.358.716-1.387.187-2.306-.546-.92-1.48-1.356-2.104-.998l-6 4.208c-.343.28-.374.92-.047 1.48.327.562.888.858 1.31.717l6.654-3.1zM.544 18.623c-.64.374-.733 1.403-.187 2.322.53.92 1.465 1.356 2.088.998l6-4.208c.343-.296.374-.935.047-1.496-.327-.561-.888-.857-1.31-.702L.545 18.623zm17.158-3.086c-.42-.155-.982.14-1.309.702-.327.56-.296 1.2.047 1.496l6 4.208c.623.358 1.558-.078 2.104-.998.53-.92.436-1.948-.187-2.322l-6.655-3.086zM12.45 18.53c-.654 0-1.2.327-1.262.763l-.655 7.31c0 .732.842 1.324 1.902 1.324 1.075 0 1.916-.592 1.916-1.325l-.638-7.309c-.078-.436-.624-.763-1.263-.763z" transform="translate(-56 -90) translate(0 70) translate(56 20) translate(3.556 1.778)"></path>
                                             </g>
                                          </g>
                                       </g>
                                    </g>
                                 </g>
                              </svg>