<svg xmlns="http://www.w3.org/2000/svg" xmlns:xlink="http://www.w3.org/1999/xlink" version="1.1" id="Capa_1" x="0px" y="0px" viewBox="0 0 150 150" style="enable-background:new 0 0 150 150;" xml:space="preserve">
<style type="text/css">
	.st0{fill:#FFFFFF;}
</style>
    <g>
	<path class="st0" d="M132.5,14.9c-7.2-2.6-15,1-17.6,8.1L88.6,95.2c-2.2,6.8,1.2,14.2,7.9,16.8c7,2.9,15-0.4,17.8-7.4l26.3-72.2   C143.2,25.3,139.6,17.4,132.5,14.9z"/>
        <path class="st0" d="M83.6,42c-7.1-2.5-14.8,1.2-17.4,8.1l-26.3,72.2c-2.5,7.1,1,14.8,8.1,17.5c7.1,2.5,14.8-1,17.5-8.1l26.3-72.2   C94.3,52.4,90.7,44.6,83.6,42z"/>
        <path class="st0" d="M54.6,14.9C47.5,12.3,39.8,16,37.2,23L10.8,95.2c-2.4,7.2,1.6,14.8,8.8,17.2c6.8,2.2,14.2-1.2,16.8-7.9   l26.3-72.2C65.2,25.3,61.7,17.4,54.6,14.9z"/>
</g>
</svg>
