<svg xmlns="http://www.w3.org/2000/svg" xmlns:xlink="http://www.w3.org/1999/xlink" version="1.1" id="Capa_1" x="0px" y="0px" viewBox="0 0 25 25" enable-background="new 0 0 25 25" xml:space="preserve">
<path d="M0,10.7c0,5.9,4.8,10.7,10.7,10.7c2.7,0,5.1-1,6.9-2.6l6.1,5.9c0.1,0.1,0.3,0.2,0.5,0.2c0.2,0,0.4-0.1,0.6-0.2  c0.3-0.3,0.3-0.8,0-1.1l-6.1-5.9c1.6-1.9,2.6-4.3,2.6-7C21.3,4.8,16.5,0,10.7,0C4.8,0,0,4.8,0,10.7z M1.5,10.7c0-5,4.1-9.1,9.1-9.1  s9.1,4.1,9.1,9.1s-4.1,9.1-9.1,9.1S1.5,15.7,1.5,10.7z"/>
</svg>
