<svg xmlns="http://www.w3.org/2000/svg" xmlns:xlink="http://www.w3.org/1999/xlink" version="1.1" id="Capa_1" x="0px" y="0px" viewBox="0 0 155 155" style="enable-background:new 0 0 155 155;" xml:space="preserve">
<style type="text/css">
	.st0{fill:#FFFFFF;}
</style>
<g>
	<circle cx="77.5" cy="76.5" r="75"/>
</g>
<g>
	<path class="st0" d="M84.7,125.8c-2,1.9-4.7,2.9-8,2.9c-3.3,0-6-0.9-8-2.9c-2-1.9-3-4.4-3-7.4c0-3,1-5.5,3.1-7.5   c2.1-2,4.7-2.9,7.9-2.9s5.9,1,7.9,2.9c2.1,2,3.1,4.5,3.1,7.5C87.7,121.4,86.7,123.8,84.7,125.8z"/>
	<path class="st0" d="M106,65c-1.7,3.5-4.8,7.2-9.1,11.4l-5.5,5.3c-3.5,3.3-5.4,7.2-5.9,11.7l-0.3,4.2H67.7c0-6.4,0.8-11.4,2.3-15.2   c1.5-3.8,4.4-7.5,8.5-11.2c4.1-3.7,6.8-6.6,8.2-9c1.4-2.3,2-4.7,2-7.3c0-7.7-3.6-11.6-10.7-11.6c-3.4,0-6.1,1-8.1,3.1   c-2,2.1-3.1,4.9-3.2,8.6H47.1c0.1-8.7,2.9-15.5,8.4-20.4c5.5-4.9,13.1-7.4,22.6-7.4c9.6,0,17.1,2.3,22.4,7c5.3,4.7,8,11.3,8.1,19.8   C108.6,57.9,107.7,61.6,106,65z"/>
</g>
</svg>
