<svg xmlns="http://www.w3.org/2000/svg" xmlns:xlink="http://www.w3.org/1999/xlink" version="1.1" id="Capa_1" x="0px" y="0px" viewBox="0 0 150 150" enable-background="new 0 0 150 150" xml:space="preserve">
<g>
	<path d="M117.3,20.7C106.6,10,92.1,3.9,77,3.9c-31.5,0-57,25.5-57,57c0,16,6.9,33.2,20.5,51.1c8.8,11.5,18.9,21.9,29.9,31.2   c1.8,1.5,4.2,2.4,6.6,2.4c2.5,0,4.8-0.9,6.7-2.5c11-9.6,21.1-20.2,29.9-31.8C127.1,93.1,134,76.2,134,61   C134.1,45.9,128,31.3,117.3,20.7z M125.4,61c0,13.3-6.3,28.5-18.8,45.1c-8.5,11.1-18.1,21.3-28.7,30.5l0,0l0,0   c-0.2,0.2-0.6,0.3-1,0.3c-0.4,0-0.8-0.1-1.1-0.4c-10.5-8.8-20.2-18.8-28.6-29.8C34.8,90.5,28.5,75,28.5,61c0-12.9,5-25.1,14.2-34.3   C51.9,17.6,64,12.6,77,12.6c6.4,0,12.6,1.2,18.5,3.7c5.9,2.4,11.2,6,15.7,10.5l0,0l0,0c4.5,4.5,8.1,9.8,10.5,15.7   C124.2,48.3,125.4,54.6,125.4,61L125.4,61L125.4,61z"/>
    <path d="M99.4,40.7c-2.8-1-5.9,0.4-7,3.2L82,72.6c-0.9,2.7,0.5,5.6,3.1,6.7c2.8,1.1,5.9-0.2,7.1-3l10.4-28.6   C103.6,44.9,102.2,41.7,99.4,40.7z"/>
    <path d="M80.4,51.5c-2.8-1-5.9,0.5-6.9,3.2L63,83.4c-1,2.8,0.4,5.9,3.2,6.9c2.8,1,5.9-0.4,6.9-3.2l10.4-28.6   C84.6,55.6,83.2,52.5,80.4,51.5z"/>
    <path d="M69.3,40.7c-2.8-1-5.9,0.5-6.9,3.2L51.9,72.6c-0.9,2.8,0.6,5.9,3.5,6.8c2.7,0.9,5.6-0.5,6.7-3.1l10.4-28.6   C73.5,44.9,72.1,41.7,69.3,40.7z"/>
</g>
</svg>
