<svg xmlns="http://www.w3.org/2000/svg" xmlns:xlink="http://www.w3.org/1999/xlink" id="Capa_2" viewBox="0 0 101.66 82.5"><defs><style>.cls-1{fill:none;}.cls-2{clip-path:url(#clippath);}.cls-3{fill:#f3f3f3;}.cls-4{fill:#f5ffbb;}.cls-5{fill:#fff;}.cls-6{fill:#b7d30f;}.cls-7{clip-path:url(#clippath-1);}</style><clipPath id="clippath"><rect class="cls-1" x="3.67" y="13.55" width="94.31" height="55.4" rx="11" ry="11" transform="translate(-12.57 24.94) rotate(-24.63)"/></clipPath><clipPath id="clippath-1"><rect class="cls-1" x="10.03" y="4.76" width="43.77" height="34.73"/></clipPath></defs><g id="Capa_1-2"><g><g class="cls-2"><rect class="cls-3" x="-9.64" y="-4.6" width="119.58" height="98.01"/><g><rect class="cls-6" x="11.84" y="20.49" width="99.13" height="50.68" rx="3.98" ry="3.98" transform="translate(19.59 -18.38) rotate(20.19)"/><path class="cls-4" d="M102.71,40.97c.11-.31,.25-.6,.4-.88-.09-.04-.18-.08-.27-.12L33.85,14.61s-.08-.02-.12-.04c-.06,.22-.13,.44-.21,.67-1.27,3.45-4.73,5.45-8.22,5.02l-8.17,22.22c2.77,1.98,4.01,5.63,2.78,8.99-.02,.07-.06,.13-.08,.2,.12,.05,.23,.1,.35,.15l68.94,25.34c1.3-3.47,4.82-5.46,8.34-4.96l8.15-22.16c-2.86-1.96-4.14-5.67-2.89-9.07Z"/><circle class="cls-6" cx="35.92" cy="36.66" r="4.72"/><circle class="cls-6" cx="86.87" cy="55.24" r="4.72"/><circle class="cls-6" cx="61.39" cy="46.42" r="13.66"/><path class="cls-5" d="M62.17,50.39c.19-.52,.2-.99,.02-1.4-.18-.41-.56-.88-1.16-1.39-.6-.52-1.1-.99-1.51-1.44s-.73-.9-.97-1.36c-.24-.47-.37-.96-.41-1.49-.03-.53,.06-1.1,.29-1.72,.39-1.07,1.06-1.83,2-2.26,.94-.43,2-.5,3.18-.2l.75-2.04,1.52,.56-.76,2.07c1.07,.57,1.77,1.36,2.12,2.38,.35,1.01,.3,2.14-.16,3.38l-2.75-1.01c.28-.76,.33-1.39,.16-1.88-.18-.49-.53-.84-1.05-1.03s-.98-.19-1.37,0c-.39,.19-.69,.55-.88,1.07-.18,.48-.18,.92,0,1.32,.17,.4,.58,.88,1.23,1.47,.65,.58,1.17,1.1,1.56,1.55,.39,.45,.69,.91,.9,1.37s.33,.95,.34,1.45c.02,.5-.08,1.04-.29,1.62-.4,1.08-1.06,1.83-1.98,2.26s-1.99,.48-3.22,.17l-.7,1.9-1.52-.56,.69-1.89c-1.25-.62-2.09-1.45-2.52-2.5-.43-1.05-.4-2.22,.08-3.52l2.75,1.01c-.28,.76-.31,1.4-.1,1.94s.65,.93,1.33,1.17c.56,.21,1.06,.22,1.49,.04,.43-.18,.74-.52,.93-1.02Z"/></g></g><g class="cls-7"><g><rect class="cls-6" x="11.84" y="20.5" width="99.13" height="50.68" rx="3.98" ry="3.98" transform="translate(19.59 -18.38) rotate(20.19)"/><path class="cls-4" d="M102.71,40.98c.11-.31,.25-.6,.4-.88-.09-.04-.18-.08-.27-.12L33.85,14.62s-.08-.02-.12-.04c-.06,.22-.13,.44-.21,.67-1.27,3.45-4.73,5.45-8.22,5.02l-8.17,22.22c2.77,1.98,4.01,5.63,2.78,8.99-.02,.07-.06,.13-.08,.2,.12,.05,.23,.1,.35,.15l68.94,25.34c1.3-3.47,4.82-5.46,8.34-4.96l8.15-22.16c-2.86-1.96-4.14-5.67-2.89-9.07Z"/><circle class="cls-6" cx="35.92" cy="36.66" r="4.72"/><circle class="cls-6" cx="86.87" cy="55.25" r="4.72"/><circle class="cls-6" cx="61.39" cy="46.42" r="13.66"/><path class="cls-5" d="M62.17,50.4c.19-.52,.2-.99,.02-1.4-.18-.41-.56-.88-1.16-1.39-.6-.52-1.1-.99-1.51-1.44s-.73-.9-.97-1.36c-.24-.47-.37-.96-.41-1.49-.03-.53,.06-1.1,.29-1.72,.39-1.07,1.06-1.83,2-2.26,.94-.43,2-.5,3.18-.2l.75-2.04,1.52,.56-.76,2.07c1.07,.57,1.77,1.36,2.12,2.38,.35,1.01,.3,2.14-.16,3.38l-2.75-1.01c.28-.76,.33-1.39,.16-1.88-.18-.49-.53-.84-1.05-1.03s-.98-.19-1.37,0c-.39,.19-.69,.55-.88,1.07-.18,.48-.18,.92,0,1.32,.17,.4,.58,.88,1.23,1.47,.65,.58,1.17,1.1,1.56,1.55,.39,.45,.69,.91,.9,1.37s.33,.95,.34,1.45c.02,.5-.08,1.04-.29,1.62-.4,1.08-1.06,1.83-1.98,2.26s-1.99,.48-3.22,.17l-.7,1.9-1.52-.56,.69-1.89c-1.25-.62-2.09-1.45-2.52-2.5-.43-1.05-.4-2.22,.08-3.52l2.75,1.01c-.28,.76-.31,1.4-.1,1.94s.65,.93,1.33,1.17c.56,.21,1.06,.22,1.49,.04,.43-.18,.74-.52,.93-1.02Z"/></g></g></g></g></svg>
