<svg xmlns="http://www.w3.org/2000/svg" xmlns:xlink="http://www.w3.org/1999/xlink" id="Capa_2" viewBox="0 0 101.66 82.5"><defs><style>.cls-1{fill:none;}.cls-2{clip-path:url(#clippath);}.cls-3{fill:#f3f3f3;}.cls-4{fill:#e8a74b;}.cls-5{fill:#fff;}.cls-6{fill:#efc56a;}.cls-7{fill:silver;}.cls-8{fill:#afafaf;}.cls-9{clip-path:url(#clippath-1);}.cls-10{clip-path:url(#clippath-3);}.cls-11{clip-path:url(#clippath-2);}</style><clipPath id="clippath"><rect class="cls-1" x="3.67" y="13.55" width="94.31" height="55.4" rx="11" ry="11" transform="translate(-12.57 24.94) rotate(-24.63)"/></clipPath><clipPath id="clippath-1"><path class="cls-1" d="M30.63,10.85s1.09,47.73,47.77,55.58l-63.56,7.25L11.04,7.54l19.59,3.32Z"/></clipPath><clipPath id="clippath-2"><polygon class="cls-1" points="13.2 35.98 70.29 8.91 13.2 8.91 13.2 35.98"/></clipPath><clipPath id="clippath-3"><path class="cls-1" d="M30.57,10.87s1.09,47.73,47.77,55.58l-63.56,7.25L10.99,7.55l19.59,3.32Z"/></clipPath></defs><g id="Capa_1-2"><g><g class="cls-2"><rect class="cls-3" x="-9.64" y="-4.6" width="119.58" height="98.01"/><g><rect class="cls-6" x="19.21" y="11.05" width="59.23" height="55.34" transform="translate(.06 -.07) rotate(.09)"/><rect class="cls-5" x="40.67" y="11.11" width="16.86" height="14.7" transform="translate(30.57 67.54) rotate(-89.91)"/><g class="cls-9"><rect class="cls-4" x="19.21" y="11.05" width="59.23" height="55.34" transform="translate(.06 -.07) rotate(.09)"/></g><g><rect class="cls-5" x="25.63" y="45.28" width="22.05" height="14.7" transform="translate(.08 -.05) rotate(.09)"/><rect class="cls-8" x="33.21" y="43.33" width="1.73" height="10.81" transform="translate(-14.72 82.73) rotate(-89.91)"/><rect class="cls-8" x="36.01" y="44.42" width="1.73" height="16.43" transform="translate(-15.81 89.43) rotate(-89.91)"/><rect class="cls-8" x="36" y="48.31" width="1.73" height="16.43" transform="translate(-19.71 93.31) rotate(-89.91)"/></g><g><path d="M71.29,50.77h-3.16c0,2.96,0,5.92-.01,8.89-1.92,0-3.82,0-5.73,0,0-2.96,0-5.91,.01-8.89h-3.17c2.03-2.95,4.03-5.86,6.04-8.79,2.01,2.94,4,5.85,6.02,8.8Z"/><rect x="59.54" y="59.43" width="11.41" height=".82" transform="translate(.09 -.1) rotate(.09)"/></g></g></g><g class="cls-11"><g><rect class="cls-6" x="19.15" y="11.07" width="59.23" height="55.34" transform="translate(.06 -.07) rotate(.09)"/><rect class="cls-5" x="40.62" y="11.13" width="16.86" height="14.7" transform="translate(30.49 67.5) rotate(-89.91)"/><g class="cls-10"><rect class="cls-4" x="19.15" y="11.07" width="59.23" height="55.34" transform="translate(.06 -.07) rotate(.09)"/></g><g><rect class="cls-5" x="25.58" y="45.3" width="22.05" height="14.7" transform="translate(.08 -.05) rotate(.09)"/><rect class="cls-7" x="33.15" y="43.35" width="1.73" height="10.81" transform="translate(-14.79 82.69) rotate(-89.91)"/><rect class="cls-7" x="35.95" y="44.44" width="1.73" height="16.43" transform="translate(-15.89 89.39) rotate(-89.91)"/><rect class="cls-7" x="35.95" y="48.33" width="1.73" height="16.43" transform="translate(-19.79 93.27) rotate(-89.91)"/></g><g><path d="M71.23,50.79h-3.16c0,2.96,0,5.92-.01,8.89-1.92,0-3.82,0-5.73,0,0-2.96,0-5.91,.01-8.89h-3.17c2.03-2.95,4.03-5.86,6.04-8.79,2.01,2.94,4,5.85,6.02,8.8Z"/><rect x="59.48" y="59.45" width="11.41" height=".82" transform="translate(.09 -.1) rotate(.09)"/></g></g></g></g></g></svg>
