<svg xmlns="http://www.w3.org/2000/svg" xmlns:xlink="http://www.w3.org/1999/xlink" id="Capa_2" viewBox="0 0 101.66 82.5"><defs><style>.cls-1{fill:none;}.cls-2{clip-path:url(#clippath);}.cls-3{fill:#f3f3f3;}.cls-4{fill:#e8a74b;}.cls-5{fill:#efc56a;}.cls-6{fill:#ffd68d;}.cls-7{clip-path:url(#clippath-1);}.cls-8{clip-path:url(#clippath-3);}.cls-9{clip-path:url(#clippath-2);}</style><clipPath id="clippath"><rect class="cls-1" x="3.67" y="13.55" width="94.31" height="55.4" rx="11" ry="11" transform="translate(-12.57 24.94) rotate(-24.63)"/></clipPath><clipPath id="clippath-1"><rect class="cls-1" x="14.18" y="16.97" width="71.17" height="46.37" rx="5.49" ry="5.49" transform="translate(-.08 .1) rotate(-.11)"/></clipPath><clipPath id="clippath-2"><rect class="cls-1" x="11.32" y="13.82" width="33.62" height="21.36"/></clipPath><clipPath id="clippath-3"><rect class="cls-1" x="14.2" y="16.89" width="71.17" height="46.37" rx="5.49" ry="5.49" transform="translate(-.08 .1) rotate(-.11)"/></clipPath></defs><g id="Capa_1-2"><g><g class="cls-2"><rect class="cls-3" x="-9.64" y="-4.6" width="119.58" height="98.01"/><g class="cls-7"><rect class="cls-4" x="10.75" y="14.75" width="77.22" height="52.01" transform="translate(-.08 .1) rotate(-.11)"/><path class="cls-5" d="M86.49,64.62l-33.72-28.08s-2.52-2.14-4.84,0L14.2,64.68l72.3-.06Z"/><path class="cls-6" d="M13.46,16.85l33.72,28.08s2.52,2.14,4.84,0l33.73-28.13-72.3,.06Z"/></g></g><g class="cls-9"><g class="cls-8"><rect class="cls-4" x="10.78" y="14.67" width="77.22" height="52.01" transform="translate(-.08 .1) rotate(-.11)"/><path class="cls-5" d="M86.52,64.54l-33.72-28.08s-2.52-2.14-4.84,0L14.23,64.6l72.3-.06Z"/><path class="cls-6" d="M13.57,16.96l33.72,28.08s2.52,2.14,4.84,0l33.73-28.13-72.3,.06Z"/></g></g></g></g></svg>
