<?xml version="1.0" standalone="no"?>
<!DOCTYPE svg PUBLIC "-//W3C//DTD SVG 20010904//EN"
 "http://www.w3.org/TR/2001/REC-SVG-20010904/DTD/svg10.dtd">
<svg version="1.0" xmlns="http://www.w3.org/2000/svg"
 width="70.000000pt" height="70.000000pt" viewBox="0 0 70.000000 70.000000"
 preserveAspectRatio="xMidYMid meet">

<g transform="translate(0.000000,70.000000) scale(0.100000,-0.100000)"
fill="#00bf63" stroke="none">
<path d="M185 624 c-77 -42 -150 -82 -163 -90 -22 -15 -22 -17 -20 -186 l3
-172 55 -31 c30 -17 106 -58 168 -90 l113 -60 177 90 177 90 0 175 0 175 -170
87 c-93 48 -177 87 -185 87 -8 0 -78 -34 -155 -75z m305 -38 l145 -74 -56 -27
-56 -28 -141 74 -140 73 46 28 c26 15 49 27 52 27 3 0 70 -33 150 -73z m-155
-77 c74 -39 133 -74 131 -78 -3 -3 -31 -19 -63 -35 l-59 -28 -114 57 c-63 32
-125 64 -137 73 l-24 15 58 33 c32 18 62 34 66 34 4 0 68 -32 142 -71z m-150
-107 l130 -67 3 -139 c2 -129 1 -138 -15 -132 -10 4 -73 36 -140 72 l-123 65
0 135 c0 74 3 134 8 134 4 0 65 -31 137 -68z m475 -67 l0 -135 -140 -70 c-77
-38 -144 -70 -150 -70 -6 0 -10 50 -10 135 l0 135 60 30 c33 16 64 30 70 30 5
0 10 -18 10 -41 0 -33 3 -40 18 -37 13 2 18 16 22 57 5 51 7 54 50 77 25 13
51 23 58 24 9 0 12 -33 12 -135z"/>
</g>
</svg>
