<?xml version="1.0" standalone="no"?>
<!DOCTYPE svg PUBLIC "-//W3C//DTD SVG 20010904//EN"
 "http://www.w3.org/TR/2001/REC-SVG-20010904/DTD/svg10.dtd">
<svg version="1.0" xmlns="http://www.w3.org/2000/svg"
 width="80.000000pt" height="80.000000pt" viewBox="0 0 80.000000 80.000000"
 preserveAspectRatio="xMidYMid meet">

<g transform="translate(0.000000,80.000000) scale(0.100000,-0.100000)"
fill="#00bf63" stroke="none">
<path d="M7 633 c-4 -3 -7 -96 -7 -205 l0 -198 27 0 c18 0 35 -11 53 -32 22
-26 34 -32 65 -32 31 0 43 6 65 32 l26 32 150 0 150 0 22 -30 c12 -16 33 -32
45 -35 33 -9 75 11 89 40 10 22 18 25 60 25 l48 0 0 88 c0 86 -1 88 -29 105
-23 14 -30 27 -40 77 -18 88 -33 100 -131 100 -73 0 -80 2 -80 20 0 19 -7 20
-253 20 -140 0 -257 -3 -260 -7z m483 -143 l0 -120 -230 0 -230 0 0 113 c0 63
3 117 7 120 3 4 107 7 230 7 l223 0 0 -120z m92 3 l3 -78 82 -5 c46 -3 88 -11
95 -17 9 -10 6 -13 -20 -13 -31 0 -32 -2 -32 -40 0 -38 2 -40 30 -40 23 0 30
-4 30 -20 0 -33 -56 -27 -87 10 -18 22 -33 30 -57 30 -31 0 -76 -30 -76 -50 0
-6 -7 -10 -15 -10 -13 0 -15 24 -15 155 l0 155 30 0 29 0 3 -77z m95 65 c9
-11 33 -95 33 -112 0 -3 -20 -6 -45 -6 l-45 0 0 65 c0 62 1 65 24 65 13 0 28
-6 33 -12z m93 -218 c0 -5 -7 -10 -15 -10 -8 0 -15 5 -15 10 0 6 7 10 15 10 8
0 15 -4 15 -10z m-280 -10 c0 -6 -29 -10 -67 -10 -38 0 -74 -4 -82 -9 -29 -18
2 -31 75 -31 43 0 74 -4 74 -10 0 -6 -52 -10 -135 -10 -80 0 -135 4 -135 10 0
20 -45 50 -76 50 -24 0 -39 -8 -57 -30 -37 -43 -57 -40 -57 10 l0 40 230 0
c147 0 230 -4 230 -10z m-307 -61 c14 -23 1 -66 -22 -72 -44 -11 -80 50 -49
81 17 17 58 11 71 -9z m477 7 c29 -36 -13 -92 -57 -75 -26 9 -32 56 -11 77 16
16 53 15 68 -2z"/>
<path d="M270 305 c-10 -12 -9 -16 3 -21 17 -6 37 2 37 16 0 15 -29 19 -40 5z"/>
</g>
</svg>
