<svg xmlns="http://www.w3.org/2000/svg" width="131" height="87" viewBox="0 0 131.4 86.9"><defs><style>  .a{opacity:0;}.b{fill:#fff;}.c{fill:#ff5f00;}.d{fill:#eb001b;}.e{fill:#f79e1b;}</style></defs><title>  Asset 1</title><g class="a"><rect class="b" width="131.4" height="86.9"/></g><rect class="c" x="48.4" y="15.1" width="34.7" height="56.6"/><path class="d" d="M51.9 43.5a35.9 35.9 0 0 1 13.8-28.3 36 36 0 1 0 0 56.6A35.9 35.9 0 0 1 51.9 43.5Z"/><path class="e" d="M120.5 65.8V64.6H121v-0.2h-1.2v0.2h0.5v1.2Zm2.3 0v-1.4h-0.4l-0.4 1-0.4-1h-0.4v1.4h0.3V64.7l0.4h0.3l0.4-0.9v1.1Z"/><path class="e" d="M123.9 43.5a36 36 0 0 1-58.2 28.3 36 36 0 0 0 0-56.6 36 36 0 0 1 58.3 28.3Z"/></svg>