<svg version="1.0" xmlns="http://www.w3.org/2000/svg" width="1920pt" height="622pt" viewBox="0 0 1920 622"><g transform="translate(0.000000,622.000000) scale(0.100000,-0.100000)" fill="#000" style="fill:#1534cc" stroke="none"><path d="M12290 6204c-1010-72-1784-487-2153-1154-79-143-155-369-189-560-20-119-17-436 6-540 92-421 365-770 847-1083 146-95 243-148 516-286 457-231 649-374 734-546 42-86 51-201 24-301-84-310-508-494-1080-469-491 20-853 111-1312 326-59 27-108 47-110 45-9-8-282-1299-277-1307 6-11 193-82 294-112 528-158 1202-235 1735-197 370 26 714 96 1012 205 136 50 4e2 181 508 252 471 311 764 749 845 1266 87 556-44 991-410 1358-225 226-412 351-945 634-530 281-676 387-757 553-29 59-33 76-33 147 0 69 5 89 33 149 86 182 302 308 617 357 117 18 452 15 610-5 299-40 582-116 835-225l89-38 10 46c20 83 261 1213 261 1221 0 11-298 106-470 149-319 80-574 111-925 116-143 1-285 1-315-1z"/><path d="M35 6088c-14-45-33-154-27-159 4-3 88-25 187-49 586-140 1170-351 1413-511 122-80 199-183 248-329 10-30 302-1153 649-2495l631-2440 819-3 820-2L6e3 3022c673 1608 1239 2958 1257 3001l32 77-815-2-816-3-797-2015c-439-1108-801-2024-805-2035-5-11-10-15-12-10-2 6-150 788-329 1740-179 952-335 1762-346 18e2-38 126-94 221-189 315-91 92-168 139-295 182l-70 23-1388 3c-1115 2-1388 0-1392-10z"/><path d="M7316 3112c-351-1643-639-2991-640-2997-1-7 263-10 774-10h774l637 2979c351 1639 640 2988 642 2998 5 17-23 18-771 18h-777l-639-2988z"/><path d="M16491 6089c-71-14-141-39-216-78-83-43-213-168-262-251-27-46-2356-5590-2370-5643-5-16 36-17 808-15l813 3 161 445 161 445 996 3 995 2 22-102c12-57 54-258 94-448l72-345 719-3 718-2-5 22c-9 36-1247 5966-1247 5972 0 10-1411 5-1459-5zm592-2723c126-602 231-1103 234-1115l5-21h-641c-352 0-641 3-641 7 0 16 803 2223 809 2223 3 0 109-492 234-1094z"/></g></svg>