<?xml version="1.0" encoding="UTF-8"?>
<svg width="152px" height="79px" viewBox="0 0 152 79" version="1.1" xmlns="http://www.w3.org/2000/svg" xmlns:xlink="http://www.w3.org/1999/xlink">
    <!-- Generator: Sketch 60.1 (88133) - https://sketch.com -->
    <title>LOGO</title>
    <desc>Created with Sketch.</desc>
    <g id="Definitivo" stroke="none" stroke-width="1" fill="none" fill-rule="evenodd">
        <g id="Home" transform="translate(-60.000000, -60.000000)" fill="#FFFFFF">
            <g id="LOGO" transform="translate(60.000000, 60.000000)">
                <path d="M26.7961602,0.0212173913 L114.124434,0.0107826087 C114.124434,0.0107826087 122.579682,-0.575884058 128.691545,7.0786087 C128.821733,7.33831884 146.924844,29.6003478 146.924844,29.6003478 C146.924844,29.6003478 156.05428,38.6809275 147.067818,50.0977391 C147.067818,50.2275942 129.106519,70.3354203 129.106519,70.3354203 C129.106519,70.3354203 122.733117,79.5910725 112.58775,78.9846957 L13.1717499,78.9846957 L14.5747585,72.7446957 C14.5747585,72.7446957 15.3616986,69.518029 19.454485,69.5215072 L112.58775,69.5215072 C112.58775,69.5215072 116.75028,69.9458551 119.221528,66.9626667 C119.221528,67.0925217 140.031852,43.4809275 140.031852,43.4809275 C140.031852,43.4809275 143.283066,40.238029 140.031852,36.0861449 L122.082177,14.1615072 C122.082177,14.1615072 119.327305,9.6733913 112.58775,9.88092754 L30.1240918,9.88092754 C30.1240918,9.88092754 24.9630662,10.1510725 25.2594764,6.30295652" id="Fill-556"></path>
                <path d="M13.2398662,69.5181449 L1.48574651,69.5193043 L0.0118319761,75.5424928 C-0.272954349,79.234087 4.67767813,78.9743768 4.67767813,78.9743768 L10.9464645,78.9743768 L13.2398662,69.5181449 Z" id="Fill-558"></path>
                <path d="M87.9442012,36.7453913 C85.8879277,34.4103188 82.6959961,33.2427826 78.3672439,33.2427826 C73.4863551,33.2427826 69.2691927,34.6062609 65.7157568,37.3332174 C62.1634833,40.0613333 59.9340132,43.3853913 59.0261841,47.3077101 C58.0869704,51.3610435 58.8622867,54.6862609 61.3521328,57.2822029 C63.8408166,59.8781449 67.5616371,61.1766957 72.5157568,61.1766957 C76.31562,61.1766957 80.6373978,60.2143768 85.4834149,58.2908986 L87.4036884,49.9975652 C84.9370901,51.3981449 82.9912439,52.3697391 81.5661499,52.9111884 C80.1410559,53.4537971 78.6462183,53.723942 77.0827995,53.723942 C75.0602354,53.723942 73.5154149,53.2752464 72.4471756,52.3790145 C71.3800986,51.4827826 70.7884405,50.1378551 70.674526,48.3442319 L89.1542525,48.3442319 L89.6668679,46.1308986 C90.5746969,42.2085797 90.0004747,39.0804638 87.9442012,36.7453913 M80.4432781,42.7129275 L80.2352098,43.6091594 L71.2289875,43.6091594 C71.7602012,41.8352464 72.5192439,40.5088696 73.5061157,39.6311884 C74.4929875,38.7535072 75.7100132,38.314087 77.1571927,38.314087 C78.3870046,38.314087 79.3122696,38.7442319 79.9329875,39.6033623 C80.5537055,40.4624928 80.7245773,41.4990145 80.4432781,42.7129275" id="Fill-560"></path>
                <path d="M89.5902662,58.6488116 C93.2134457,60.1873623 96.7633944,60.956058 100.243599,60.956058 C104.388694,60.956058 107.981651,60.076058 111.022471,58.3148986 C114.062129,56.5548986 115.87895,54.396058 116.470608,51.8383768 C117.311018,48.2070725 114.717719,45.565913 108.690711,43.9172174 C106.468215,43.3235942 105.447634,42.6383768 105.627805,41.8604058 C105.760317,41.2853333 106.133446,40.8598261 106.746027,40.5815652 C107.358608,40.3033043 108.211805,40.1641739 109.307941,40.1641739 C111.738505,40.1641739 114.070266,41.0534493 116.303223,42.8331594 L118.124694,34.9664928 C115.221035,33.8175072 112.14883,33.2435942 108.909241,33.2435942 C105.167497,33.2435942 101.819805,33.9937391 98.8626764,35.4951884 C95.9067106,36.9954783 94.1433602,38.9792464 93.5726251,41.4430145 C93.2634286,42.7775072 93.5121807,44.1212754 94.3200439,45.4731594 C95.1255824,46.8262029 97.3027448,48.0772174 100.849206,49.2262029 C102.333582,49.7085217 103.326266,50.1293913 103.827258,50.4911304 C104.327087,50.8517101 104.516557,51.2922899 104.39683,51.8105507 C104.238745,52.4969275 103.741241,53.0476522 102.906642,53.4650435 C102.070882,53.8812754 101.140967,54.089971 100.116899,54.089971 C97.4480439,54.089971 94.5606593,52.9224348 91.4559072,50.5885217 L89.5902662,58.6488116 Z" id="Fill-562"></path>
                <path d="M17.8670046,48.5051594 C16.8347995,52.961971 17.6693978,56.3254493 20.3696371,58.5932754 C23.068714,60.8611014 27.3253978,61.9950145 33.138526,61.9950145 C39.1457739,61.9950145 44.0743209,60.8216812 47.9264918,58.4750145 C51.776338,56.1283478 54.1999277,52.8042899 55.1949362,48.5051594 L61.7752439,20.0761739 L48.2391756,20.0761739 L41.7820815,47.9729855 C41.3217739,49.9648696 40.5394833,51.4593623 39.4375345,52.4541449 C38.3344234,53.450087 36.8977055,53.9486377 35.1262183,53.9486377 C33.437261,53.9486377 32.2969533,53.4013913 31.7064576,52.3068986 C31.1147995,51.2124058 31.071791,49.579942 31.5739448,47.4106667 L38.1542525,20.0553043 L24.4473123,20.0761739 L17.8670046,48.5051594 Z" id="Fill-564"></path>
                <path d="M24.5671551,0 L13.5546422,0.00115942029 L12.0807277,6.02434783 C11.7959414,9.71594203 16.7465739,9.45623188 16.7465739,9.45623188 L22.2737533,9.45623188 L24.5671551,0 Z" id="Fill-566"></path>
            </g>
        </g>
    </g>
</svg>