<svg xmlns="http://www.w3.org/2000/svg" width="30" height="31" viewBox="0 0 30 31">
  <g fill="none" fill-rule="evenodd">
    <ellipse cx="15" cy="15.172" fill="#262477" rx="15" ry="15.172"/>
    <path
      fill="#FFF"
      fill-rule="nonzero"
      d="M22 10.42a5.503 5.503 0 0 1-1.65.477 3.02 3.02 0 0 0 1.263-1.675 5.61 5.61 0 0 1-1.825.735A2.796 2.796 0 0 0 17.692 9c-1.586 0-2.872 1.357-2.872 3.03 0 .237.026.469.075.69-2.387-.126-4.503-1.333-5.92-3.166a3.136 3.136 0 0 0-.388 1.523c0 1.052.507 1.98 1.277 2.522a2.759 2.759 0 0 1-1.3-.38v.038c0 1.467.99 2.692 2.303 2.971-.24.069-.494.106-.757.106-.185 0-.365-.019-.54-.056.365 1.205 1.425 2.08 2.682 2.105A5.574 5.574 0 0 1 8 19.637 7.813 7.813 0 0 0 12.402 21c5.283 0 8.171-4.618 8.171-8.622l-.01-.393A5.919 5.919 0 0 0 22 10.42z"/>
  </g>
</svg>
