<svg width="30" height="31" viewBox="0 0 30 31" fill="none" xmlns="http://www.w3.org/2000/svg">
<circle cx="15" cy="15" r="15" fill="#262477"/>
<g clip-path="url(#clip0_1641_6414)">
<path d="M22.6666 11.3382C22.576 11.015 22.3995 10.7224 22.1559 10.4915C21.9054 10.2535 21.5985 10.0833 21.2639 9.99688C20.0119 9.66688 14.9959 9.66688 14.9959 9.66688C12.9048 9.64309 10.8142 9.74773 8.73592 9.98021C8.40138 10.073 8.09497 10.2471 7.84392 10.4869C7.59726 10.7242 7.41859 11.0169 7.32526 11.3375C7.10105 12.5454 6.99212 13.7718 6.99992 15.0002C6.99192 16.2275 7.10059 17.4535 7.32526 18.6629C7.41659 18.9822 7.59459 19.2735 7.84192 19.5089C8.08926 19.7442 8.39726 19.9142 8.73592 20.0042C10.0046 20.3335 14.9959 20.3335 14.9959 20.3335C17.0897 20.3574 19.183 20.2527 21.2639 20.0202C21.5985 19.9338 21.9054 19.7635 22.1559 19.5255C22.3994 19.2947 22.5757 19.0021 22.6659 18.6789C22.896 17.4715 23.0078 16.2446 22.9999 15.0155C23.0172 13.7813 22.9055 12.5486 22.6666 11.3375V11.3382ZM13.4013 17.2829V12.7182L17.5746 15.0009L13.4013 17.2829Z" fill="white"/>
</g>
<defs>
<clipPath id="clip0_1641_6414">
<rect width="16" height="16" fill="white" transform="translate(7 7)"/>
</clipPath>
</defs>
</svg>
