<svg xmlns="http://www.w3.org/2000/svg" xml:space="preserve" width="438.427" height="172" viewBox="0 0 438.427 172"><path fill="#fff" d="M237.39 128.88c.169 3.573 2.38 4.722 5.737 4.722 2.381 0 4.846-.853 4.846-3.105 0-2.678-4.336-3.189-8.713-4.422-4.336-1.232-8.884-3.188-8.884-8.755 0-6.632 6.673-9.224 12.368-9.224 6.036 0 12.116 2.932 12.159 9.776h-7.906c.126-2.763-2.466-3.656-4.889-3.656-1.7 0-3.827.596-3.827 2.593 0 2.338 4.38 2.763 8.8 3.995 4.378 1.235 8.799 3.274 8.799 8.756 0 7.695-6.547 10.161-13.219 10.161-6.972 0-13.136-3.06-13.177-10.84h7.905M258.97 108.732h24.187v6.334h-16.28v5.314h14.878v6.12h-14.878v5.78h16.704v6.803h-24.61v-30.35M294.293 121.91h6.632c2.38 0 3.655-1.275 3.655-3.57 0-2.255-1.784-3.274-3.995-3.274h-6.292zm-7.905-13.178h15.473c5.356 0 10.626 2.424 10.626 8.545 0 3.274-1.572 6.376-4.762 7.608v.086c3.232.765 4.167 4.377 4.423 7.268.084 1.276.21 5.738 1.275 6.844H305.6c-.68-1.022-.808-3.995-.893-4.847-.21-3.06-.721-6.205-4.42-6.205h-5.995v11.052h-7.905v-30.35M331.107 139.083h-9.099l-9.564-30.35h8.247l5.952 22.571h.082l5.954-22.572h8.245l-9.817 30.35M341.479 108.732h7.905v30.35h-7.905v-30.35M373.315 119.572c-.426-3.06-2.806-4.675-6.12-4.675-5.102 0-7.058 4.506-7.058 9.01 0 4.507 1.956 9.012 7.058 9.012 3.697 0 5.822-2.125 6.12-5.61h7.906c-.425 7.82-6.164 12.412-13.857 12.412-9.181 0-15.133-7.014-15.133-15.814 0-8.798 5.952-15.811 15.133-15.811 6.547 0 13.645 4.165 13.857 11.476h-7.906M383.73 108.732h24.186v6.334h-16.28v5.314h14.877v6.12h-14.877v5.78h16.704v6.803h-24.61v-30.35M239.132 84.906h5.312c2.467 0 4.252-1.02 4.252-3.784 0-2.847-1.827-3.994-4.252-3.994h-5.312zm-7.907-14.112h14.41c5.653 0 10.969 2.593 10.969 9.776 0 7.525-4.295 10.457-10.97 10.457h-6.502v10.117h-7.907v-30.35M264.836 89.836h6.887l-3.358-10.626h-.085zm-.508-19.042h8.033l11.35 30.35h-8.247l-1.87-5.441h-10.585l-1.913 5.44h-8.119l11.351-30.35M292.213 83.97h6.63c2.38 0 3.657-1.274 3.657-3.57 0-2.253-1.787-3.273-3.996-3.273h-6.29zm-7.906-13.176h15.47c5.358 0 10.628 2.422 10.628 8.543 0 3.273-1.572 6.377-4.76 7.61v.084c3.23.765 4.166 4.378 4.42 7.268.086 1.276.212 5.74 1.275 6.845h-7.821c-.68-1.02-.807-3.996-.892-4.847-.214-3.06-.723-6.206-4.422-6.206h-5.992v11.053h-7.906v-30.35M333.163 81.634c-.426-3.061-2.807-4.677-6.122-4.677-5.101 0-7.056 4.506-7.056 9.011 0 4.507 1.955 9.012 7.056 9.012 3.698 0 5.823-2.125 6.122-5.61h7.906c-.426 7.821-6.164 12.41-13.857 12.41-9.181 0-15.133-7.012-15.133-15.812 0-8.799 5.952-15.812 15.133-15.812 6.545 0 13.644 4.165 13.857 11.478h-7.906M343.577 70.794h24.187v6.333h-16.28v5.314h14.877v6.121h-14.877v5.781h16.705v6.8h-24.612v-30.35M370.995 70.794h7.906v23.55h14.155v6.8h-22.061v-30.35M237.39 53.036c.169 3.57 2.38 4.718 5.737 4.718 2.381 0 4.846-.85 4.846-3.103 0-2.678-4.336-3.188-8.713-4.42-4.336-1.234-8.884-3.19-8.884-8.757 0-6.631 6.673-9.225 12.368-9.225 6.036 0 12.116 2.934 12.159 9.778h-7.906c.126-2.763-2.466-3.658-4.889-3.658-1.7 0-3.827.597-3.827 2.595 0 2.338 4.38 2.763 8.8 3.995 4.378 1.233 8.799 3.273 8.799 8.757 0 7.693-6.547 10.159-13.219 10.159-6.972 0-13.136-3.061-13.177-10.839h7.905M258.388 32.888h7.905v23.548h14.155v6.801h-22.06V32.888M296.21 57.074c5.102 0 7.058-4.505 7.058-9.012 0-4.505-1.956-9.01-7.057-9.01-5.1 0-7.056 4.505-7.056 9.01 0 4.507 1.956 9.012 7.056 9.012m0-24.825c9.565 0 14.962 7.014 14.962 15.813s-5.397 15.813-14.962 15.813c-9.564 0-14.963-7.014-14.963-15.813s5.399-15.813 14.963-15.813M329.239 63.237h-9.096l-9.564-30.35h8.246l5.951 22.572h.085l5.951-22.572h8.247l-9.82 30.35M346.244 51.93h6.885l-3.357-10.626h-.085zm-.51-19.042h8.034l11.348 30.349h-8.247L355 57.797h-10.584l-1.915 5.44h-8.117l11.35-30.349M366.293 32.888h7.908v11.646l9.988-11.646h9.82l-11.222 11.943 12.625 18.406h-9.819l-8.161-12.752-3.23 3.4v9.352h-7.909V32.888"/><path fill="#f47216" d="M214.465 36.655c-.981-2.258-3.236-3.668-5.897-3.72v-.007h-.15l-22.453-.004-1.032 1.564c-.516.775-5.604 8.382-13.249 19.072l-.197.273c-6.863 9.597-15.987 21.538-26.938 33.735-24.787 27.6-35.372 32.889-40.142 35.146-.223.106-.428.202-.618.294-5.414 2.622-11.117 3.895-17.438 3.895-22.547 0-40.89-18.344-40.89-40.891 0-22.547 18.343-40.892 40.888-40.892 12.953 0 25.181 6.188 32.882 16.587l9.077-12.714c-10.272-11.757-25.412-18.905-42.016-18.905-30.824 0-55.903 25.092-55.903 55.953 0 30.85 25.079 55.954 55.903 55.954 33.111 0 59.133-22.94 75.835-40.183 13.114-13.554 50.101-56.184 50.472-56.613l-.026-.025c3.262-4.054 2.439-7.266 1.892-8.52"/><path fill="#f47216" d="M109.47 90.97c-5.952 8.329-14.204 17.141-25.322 16.077-10.396-.993-18.98-10-18.929-21.04.028-5.815 2.012-10.637 6.133-14.85 4.049-4.137 9.453-6.24 15.012-6.268 6.405-.033 14.967 3.239 19.226 12.392.564 1.21.883 2.265.883 2.265l9.85-13.773-.48-.811c-6.798-9.509-17.816-15.182-29.492-15.182-19.98 0-36.232 16.253-36.232 36.232s16.253 36.232 36.232 36.232c7.462 0 12.367-1.957 15.407-3.428.202-.098.42-.2.656-.311 4.127-1.954 14.508-7.145 38.669-34.05 10.778-12.004 19.82-23.83 26.616-33.332l.196-.272a805.184 805.184 0 0 0 12.48-17.93l-29.271-.006-.061.004c-.364.509-36.108 50.63-38.992 54.496l-2.58 3.554"/></svg>