<?xml version="1.0" encoding="utf-8"?>
<!-- Generator: Adobe Illustrator 19.2.1, SVG Export Plug-In . SVG Version: 6.00 Build 0)  -->
<svg version="1.1" id="Capa_1" xmlns="http://www.w3.org/2000/svg" xmlns:xlink="http://www.w3.org/1999/xlink" x="0px" y="0px"
	 width="173px" height="71px" viewBox="0 0 173 71" enable-background="new 0 0 173 71" xml:space="preserve">
<g>
	<path fill="#1D1D1B" d="M161.499,54.368c0,3.662-2.969,6.632-6.629,6.632H18.131c-3.661,0-6.631-2.969-6.631-6.632V18.564
		c0-3.662,2.969-6.631,6.631-6.631h136.74c3.662,0,6.629,2.969,6.629,6.631L161.499,54.368L161.499,54.368z"/>
	<g id="PLAY_1_">
		<g>
			<defs>
				<path id="SVGID_1_" d="M44.006,33.531l-6.764-3.905c0,0-12.322-7.114-13.046-7.533c-0.725-0.419-1.446-0.165-1.446,0.709
					c0,1.456,0,15.191,0,15.191s0,14.844,0,15.5c0,0.655,0.516,0.938,1.145,0.574c0.629-0.364,13.347-7.707,13.347-7.707
					l6.763-3.904c0,0,5.738-3.313,6.502-3.753c0.763-0.441,0.689-1.045,0.046-1.391C49.91,36.964,44.006,33.531,44.006,33.531z"/>
			</defs>
			<clipPath id="SVGID_2_">
				<use xlink:href="#SVGID_1_"  overflow="visible"/>
			</clipPath>
			
				<linearGradient id="SVGID_3_" gradientUnits="userSpaceOnUse" x1="31.1282" y1="68.621" x2="31.1282" y2="35.393" gradientTransform="matrix(1 0 0 -1 0 90)">
				<stop  offset="0" style="stop-color:#207AB0"/>
				<stop  offset="0.3206" style="stop-color:#4A98B5"/>
				<stop  offset="0.7782" style="stop-color:#81C0BB"/>
				<stop  offset="1" style="stop-color:#97CFBE"/>
			</linearGradient>
			<polygon clip-path="url(#SVGID_2_)" fill="url(#SVGID_3_)" points="22.751,21.379 22.751,37.993 22.751,54.607 39.506,37.994 			
				"/>
		</g>
		<g>
			<defs>
				<path id="SVGID_4_" d="M44.006,33.531l-6.764-3.905c0,0-12.322-7.114-13.046-7.533c-0.725-0.419-1.446-0.165-1.446,0.709
					c0,1.456,0,15.191,0,15.191s0,14.844,0,15.5c0,0.655,0.516,0.938,1.145,0.574c0.629-0.364,13.347-7.707,13.347-7.707
					l6.763-3.904c0,0,5.738-3.313,6.502-3.753c0.763-0.441,0.689-1.045,0.046-1.391C49.91,36.964,44.006,33.531,44.006,33.531z"/>
			</defs>
			<clipPath id="SVGID_5_">
				<use xlink:href="#SVGID_4_"  overflow="visible"/>
			</clipPath>
			
				<linearGradient id="SVGID_6_" gradientUnits="userSpaceOnUse" x1="22.7507" y1="60.374" x2="44.0065" y2="60.374" gradientTransform="matrix(1 0 0 -1 0 90)">
				<stop  offset="0" style="stop-color:#59BBAA"/>
				<stop  offset="1" style="stop-color:#E6E89A"/>
			</linearGradient>
			<polygon clip-path="url(#SVGID_5_)" fill="url(#SVGID_6_)" points="44.006,33.531 37.243,29.626 22.751,21.258 22.751,21.379 
				39.506,37.994 			"/>
		</g>
		<g>
			<defs>
				<path id="SVGID_7_" d="M44.006,33.531l-6.764-3.905c0,0-12.322-7.114-13.046-7.533c-0.725-0.419-1.446-0.165-1.446,0.709
					c0,1.456,0,15.191,0,15.191s0,14.844,0,15.5c0,0.655,0.516,0.938,1.145,0.574c0.629-0.364,13.347-7.707,13.347-7.707
					l6.763-3.904c0,0,5.738-3.313,6.502-3.753c0.763-0.441,0.689-1.045,0.046-1.391C49.91,36.964,44.006,33.531,44.006,33.531z"/>
			</defs>
			<clipPath id="SVGID_8_">
				<use xlink:href="#SVGID_7_"  overflow="visible"/>
			</clipPath>
			
				<linearGradient id="SVGID_9_" gradientUnits="userSpaceOnUse" x1="33.3786" y1="52.0062" x2="33.3786" y2="35.2722" gradientTransform="matrix(1 0 0 -1 0 90)">
				<stop  offset="0" style="stop-color:#E43332"/>
				<stop  offset="0.1636" style="stop-color:#D43643"/>
				<stop  offset="0.7271" style="stop-color:#A23E7A"/>
				<stop  offset="1" style="stop-color:#8E4190"/>
			</linearGradient>
			<polygon clip-path="url(#SVGID_8_)" fill="url(#SVGID_9_)" points="22.751,54.607 22.751,54.728 37.243,46.36 44.006,42.455 
				39.506,37.994 			"/>
		</g>
		<g>
			<defs>
				<path id="SVGID_10_" d="M44.006,33.531l-6.764-3.905c0,0-12.322-7.114-13.046-7.533c-0.725-0.419-1.446-0.165-1.446,0.709
					c0,1.456,0,15.191,0,15.191s0,14.844,0,15.5c0,0.655,0.516,0.938,1.145,0.574c0.629-0.364,13.347-7.707,13.347-7.707
					l6.763-3.904c0,0,5.738-3.313,6.502-3.753c0.763-0.441,0.689-1.045,0.046-1.391C49.91,36.964,44.006,33.531,44.006,33.531z"/>
			</defs>
			<clipPath id="SVGID_11_">
				<use xlink:href="#SVGID_10_"  overflow="visible"/>
			</clipPath>
			
				<linearGradient id="SVGID_12_" gradientUnits="userSpaceOnUse" x1="45.6209" y1="56.4688" x2="45.6209" y2="47.5445" gradientTransform="matrix(1 0 0 -1 0 90)">
				<stop  offset="0" style="stop-color:#F08779"/>
				<stop  offset="0.6326" style="stop-color:#F8B474"/>
				<stop  offset="1" style="stop-color:#FCCA72"/>
			</linearGradient>
			<polygon clip-path="url(#SVGID_11_)" fill="url(#SVGID_12_)" points="44.006,33.531 39.506,37.994 44.006,42.455 51.736,37.993 
							"/>
		</g>
	</g>
	<g>
		<path fill="#F9F9F9" d="M128.237,44.489c-0.629,0-1.204-0.116-1.724-0.348c-0.52-0.233-0.957-0.59-1.31-1.071h-0.106
			c0.07,0.564,0.106,1.1,0.106,1.604v3.976h-1.462V34.649h1.19l0.202,1.322h0.07c0.377-0.53,0.814-0.911,1.314-1.146
			c0.499-0.236,1.072-0.353,1.719-0.353c1.282,0,2.271,0.438,2.967,1.314c0.697,0.876,1.045,2.104,1.045,3.686
			c0,1.587-0.354,2.82-1.062,3.699C130.478,44.049,129.495,44.489,128.237,44.489z M128.025,35.716c-0.988,0-1.702,0.274-2.142,0.82
			c-0.441,0.547-0.667,1.417-0.68,2.61v0.326c0,1.358,0.227,2.329,0.68,2.915c0.453,0.585,1.179,0.877,2.177,0.877
			c0.835,0,1.49-0.338,1.963-1.013c0.473-0.676,0.71-1.607,0.71-2.795c0-1.204-0.236-2.129-0.71-2.773
			C129.549,36.038,128.883,35.716,128.025,35.716z"/>
		<path fill="#F9F9F9" d="M135.637,44.312h-1.463v-13.72h1.463V44.312z"/>
		<path fill="#F9F9F9" d="M144.052,44.312l-0.291-1.375h-0.07c-0.482,0.606-0.962,1.016-1.441,1.23
			c-0.479,0.215-1.077,0.322-1.794,0.322c-0.958,0-1.709-0.247-2.253-0.74c-0.544-0.493-0.816-1.195-0.816-2.107
			c0-1.952,1.561-2.974,4.682-3.068l1.64-0.053v-0.599c0-0.758-0.164-1.319-0.49-1.679c-0.326-0.362-0.848-0.542-1.564-0.542
			c-0.805,0-1.717,0.247-2.733,0.74l-0.45-1.12c0.476-0.259,0.997-0.461,1.565-0.608c0.567-0.147,1.135-0.22,1.706-0.22
			c1.152,0,2.005,0.256,2.561,0.767c0.555,0.512,0.833,1.331,0.833,2.46v6.595L144.052,44.312L144.052,44.312z M140.746,43.281
			c0.911,0,1.626-0.25,2.146-0.749c0.52-0.5,0.781-1.199,0.781-2.099v-0.873l-1.464,0.062c-1.163,0.042-2.003,0.222-2.517,0.543
			c-0.514,0.32-0.771,0.818-0.771,1.495c0,0.529,0.16,0.931,0.481,1.208C139.721,43.142,140.169,43.281,140.746,43.281z"/>
		<path fill="#F9F9F9" d="M145.986,34.649h1.569l2.117,5.511c0.464,1.259,0.753,2.166,0.865,2.725h0.07
			c0.076-0.301,0.237-0.813,0.48-1.539c0.244-0.726,1.042-2.957,2.394-6.696h1.57l-4.153,11.003
			c-0.411,1.087-0.892,1.859-1.442,2.315c-0.549,0.455-1.224,0.682-2.023,0.682c-0.447,0-0.888-0.049-1.323-0.149v-1.172
			c0.323,0.07,0.685,0.106,1.084,0.106c1.005,0,1.722-0.564,2.152-1.693l0.538-1.375L145.986,34.649z"/>
	</g>
	<g>
		<path fill="#F9F9F9" d="M101.124,35.547c0.464,0.384,1.435,1.193,1.435,2.729c0,1.495-0.849,2.204-1.698,2.87
			c-0.263,0.262-0.566,0.547-0.566,0.991c0,0.443,0.303,0.686,0.526,0.868l0.728,0.565c0.89,0.748,1.697,1.436,1.697,2.831
			c0,1.9-1.84,3.819-5.315,3.819c-2.931,0-4.345-1.394-4.345-2.89c0-0.728,0.362-1.757,1.556-2.466
			c1.252-0.768,2.951-0.868,3.86-0.93c-0.284-0.364-0.607-0.748-0.607-1.373c0-0.343,0.101-0.545,0.203-0.789
			c-0.223,0.02-0.445,0.041-0.647,0.041c-2.142,0-3.355-1.597-3.355-3.173c0-0.93,0.425-1.961,1.293-2.708
			c1.153-0.95,2.527-1.112,3.619-1.112h4.162l-1.294,0.728H101.124z M99.689,44.522c-0.161-0.021-0.263-0.021-0.464-0.021
			c-0.182,0-1.275,0.041-2.123,0.325c-0.445,0.16-1.739,0.646-1.739,2.081c0,1.434,1.395,2.467,3.558,2.467
			c1.939,0,2.971-0.931,2.971-2.184C101.893,46.157,101.225,45.613,99.689,44.522z M100.275,40.681
			c0.464-0.466,0.504-1.111,0.504-1.476c0-1.455-0.869-3.718-2.546-3.718c-0.526,0-1.091,0.262-1.415,0.667
			c-0.343,0.424-0.445,0.97-0.445,1.495c0,1.354,0.788,3.598,2.527,3.598C99.406,41.247,99.95,41.004,100.275,40.681z"/>
		<path fill="#F9F9F9" d="M88.4,44.198c-3.208,0-4.924-2.503-4.924-4.763c0-2.644,2.159-4.903,5.228-4.903
			c2.965,0,4.822,2.32,4.822,4.762C93.525,41.675,91.69,44.198,88.4,44.198z M90.922,42.563c0.485-0.646,0.606-1.453,0.606-2.241
			c0-1.776-0.847-5.166-3.35-5.166c-0.665,0-1.331,0.263-1.816,0.687c-0.787,0.705-0.929,1.594-0.929,2.462
			c0,1.996,0.989,5.285,3.431,5.285C89.651,43.591,90.458,43.208,90.922,42.563z"/>
		<path fill="#F9F9F9" d="M77.463,44.198c-3.209,0-4.924-2.503-4.924-4.763c0-2.644,2.16-4.903,5.227-4.903
			c2.966,0,4.822,2.32,4.822,4.762C82.588,41.675,80.752,44.198,77.463,44.198z M79.985,42.563c0.485-0.646,0.606-1.453,0.606-2.241
			c0-1.776-0.848-5.166-3.35-5.166c-0.665,0-1.332,0.263-1.816,0.687c-0.787,0.705-0.928,1.594-0.928,2.462
			c0,1.996,0.988,5.285,3.431,5.285C78.714,43.591,79.521,43.208,79.985,42.563z"/>
		<path fill="#F9F9F9" d="M70.997,43.882l-2.902,0.67c-1.177,0.183-2.232,0.344-3.347,0.344c-5.6,0-7.729-4.119-7.729-7.345
			c0-3.935,3.022-7.586,8.197-7.586c1.096,0,2.15,0.162,3.104,0.426c1.522,0.426,2.231,0.953,2.678,1.258l-1.685,1.603l-0.71,0.161
			l0.507-0.812c-0.689-0.669-1.949-1.906-4.342-1.906c-3.206,0-5.621,2.435-5.621,5.986c0,3.813,2.759,7.404,7.181,7.404
			c1.3,0,1.968-0.263,2.577-0.508v-3.265l-3.063,0.162l1.622-0.873h4.301l-0.527,0.507c-0.143,0.122-0.163,0.163-0.203,0.324
			c-0.021,0.183-0.04,0.772-0.04,0.974L70.997,43.882L70.997,43.882z"/>
		<path fill="#F9F9F9" d="M107.537,43.298c-0.67-0.061-0.81-0.182-0.81-0.974V42.1V30.84c0.004-0.043,0.007-0.089,0.011-0.131
			c0.082-0.709,0.284-0.832,0.914-1.197h-2.902l-1.522,0.73h1.551v0.009l-0.002-0.007V42.1v0.671c0,0.405-0.08,0.467-0.547,1.075
			h3.591l0.751-0.445C108.227,43.358,107.882,43.338,107.537,43.298z"/>
		<path fill="#F9F9F9" d="M115.792,43.484c-0.221,0.122-0.442,0.263-0.663,0.363c-0.666,0.302-1.351,0.383-1.956,0.383
			c-0.644,0-1.651-0.041-2.68-0.786c-1.43-1.008-2.054-2.741-2.054-4.252c0-3.122,2.539-4.654,4.614-4.654
			c0.725,0,1.472,0.181,2.076,0.565c1.007,0.664,1.268,1.53,1.409,1.993l-4.733,1.915l-1.552,0.121
			c0.503,2.559,2.236,4.049,4.15,4.049c1.027,0,1.773-0.362,2.458-0.704L115.792,43.484z M113.899,37.479
			c0.382-0.14,0.583-0.262,0.583-0.544c0-0.806-0.906-1.733-1.995-1.733c-0.807,0-2.317,0.625-2.317,2.801
			c0,0.343,0.04,0.705,0.062,1.069L113.899,37.479z"/>
		<g>
			<path fill="#F9F9F9" d="M117.737,34.677v1.33h-0.161v-1.33h-0.44v-0.138h1.041v0.138H117.737z"/>
			<path fill="#F9F9F9" d="M119.549,36.006v-1.342h-0.007l-0.41,1.342h-0.126l-0.413-1.342h-0.005v1.342h-0.147v-1.467h0.251
				l0.374,1.186h0.005l0.368-1.186h0.255v1.467H119.549z"/>
		</g>
	</g>
	<g>
		<path fill="#FCFCFC" d="M61.048,26.014H60.04c0-0.139-0.096-0.531-0.287-1.178h-1.456c-0.197,0.636-0.296,1.029-0.296,1.178
			h-0.948c0-0.082,0.245-0.754,0.736-2.016c0.49-1.262,0.736-1.958,0.736-2.086h1.191c0,0.12,0.222,0.805,0.666,2.056
			C60.826,25.218,61.048,25.901,61.048,26.014z M59.593,24.234c-0.359-1.084-0.539-1.67-0.539-1.758h-0.051
			c0,0.082-0.186,0.667-0.557,1.758H59.593z"/>
		<path fill="#FCFCFC" d="M65.11,26.014h-0.778c0-0.086-0.289-0.541-0.866-1.364c-0.604-0.868-0.95-1.46-1.034-1.78h-0.05
			c0.053,0.46,0.079,0.876,0.079,1.247c0,0.519,0.014,1.151,0.044,1.897h-0.775c0.031-0.651,0.047-1.366,0.047-2.146
			c0-0.766-0.016-1.419-0.047-1.956h0.936c0,0.112,0.259,0.556,0.778,1.333c0.552,0.825,0.869,1.385,0.952,1.679h0.047
			c-0.05-0.468-0.076-0.889-0.076-1.26c0-0.569-0.015-1.153-0.044-1.751h0.788c-0.029,0.521-0.044,1.173-0.044,1.956
			C65.066,24.658,65.081,25.374,65.11,26.014z"/>
		<path fill="#FCFCFC" d="M69.677,23.821c0,0.596-0.191,1.118-0.573,1.562c-0.382,0.445-0.918,0.668-1.606,0.668
			c-0.311,0-0.739-0.013-1.285-0.038c0.027-0.635,0.041-1.349,0.041-2.146c0-0.764-0.013-1.417-0.041-1.956h0.551
			c0.09,0,0.225-0.003,0.404-0.01c0.178-0.006,0.295-0.01,0.35-0.01c0.758,0,1.308,0.189,1.649,0.567
			C69.506,22.839,69.677,23.292,69.677,23.821z M68.816,23.957c0-0.403-0.118-0.743-0.353-1.019
			c-0.236-0.276-0.595-0.414-1.078-0.414c-0.09,0-0.215,0.01-0.372,0.029c0.021,0.42,0.032,0.859,0.032,1.317
			c0,0.502,0.01,1,0.032,1.493c0.136,0.027,0.273,0.041,0.409,0.041c0.451,0,0.786-0.14,1.004-0.421
			C68.708,24.701,68.816,24.36,68.816,23.957z"/>
		<path fill="#FCFCFC" d="M73.886,26.014h-0.932c-0.244-0.743-0.43-1.202-0.561-1.377c-0.131-0.175-0.34-0.262-0.63-0.262
			c-0.122,0-0.239,0.002-0.35,0.003c0,0.54,0.01,1.084,0.029,1.635h-0.876c0.027-0.635,0.041-1.349,0.041-2.146
			c0-0.764-0.013-1.417-0.041-1.956h0.545c0.063,0,0.195-0.003,0.395-0.01c0.2-0.006,0.386-0.01,0.556-0.01
			c0.964,0,1.446,0.33,1.446,0.989c0,0.523-0.275,0.887-0.826,1.094v0.047c0.212,0.058,0.398,0.224,0.557,0.496
			C73.4,24.791,73.616,25.29,73.886,26.014z M72.705,23.116c0-0.418-0.269-0.627-0.806-0.627c-0.197,0-0.372,0.014-0.523,0.044
			c0.023,0.325,0.035,0.75,0.035,1.273c0.116,0.005,0.213,0.006,0.293,0.006C72.371,23.812,72.705,23.58,72.705,23.116z"/>
		<path fill="#FCFCFC" d="M78.402,23.888c0,0.645-0.197,1.179-0.593,1.604c-0.395,0.425-0.883,0.636-1.465,0.636
			c-0.554,0-1.019-0.195-1.393-0.584c-0.374-0.389-0.561-0.885-0.561-1.485c0-0.645,0.197-1.18,0.592-1.604
			c0.395-0.424,0.883-0.636,1.465-0.636c0.554,0,1.019,0.194,1.393,0.583C78.215,22.789,78.402,23.285,78.402,23.888z
			 M77.533,23.979c0-0.439-0.113-0.795-0.337-1.068c-0.225-0.273-0.502-0.41-0.832-0.41c-0.307,0-0.567,0.137-0.781,0.413
			c-0.215,0.275-0.321,0.622-0.321,1.042c0,0.437,0.113,0.792,0.339,1.066c0.226,0.274,0.503,0.411,0.83,0.411
			c0.307,0,0.567-0.138,0.782-0.415C77.426,24.743,77.533,24.397,77.533,23.979z"/>
		<path fill="#FCFCFC" d="M80.184,26.014h-0.892c0.027-0.651,0.041-1.366,0.041-2.146c0-0.766-0.014-1.419-0.041-1.956h0.892
			c-0.027,0.529-0.041,1.181-0.041,1.956C80.143,24.66,80.156,25.376,80.184,26.014z"/>
		<path fill="#FCFCFC" d="M84.75,23.821c0,0.596-0.191,1.118-0.573,1.562c-0.382,0.445-0.918,0.668-1.606,0.668
			c-0.311,0-0.74-0.013-1.285-0.038c0.027-0.635,0.041-1.349,0.041-2.146c0-0.764-0.013-1.417-0.041-1.956h0.551
			c0.09,0,0.225-0.003,0.404-0.01c0.178-0.006,0.295-0.01,0.35-0.01c0.758,0,1.308,0.189,1.649,0.567
			C84.579,22.839,84.75,23.292,84.75,23.821z M83.89,23.957c0-0.403-0.118-0.743-0.353-1.019c-0.236-0.276-0.595-0.414-1.078-0.414
			c-0.09,0-0.215,0.01-0.372,0.029c0.021,0.42,0.031,0.859,0.031,1.317c0,0.502,0.011,1,0.032,1.493
			c0.136,0.027,0.273,0.041,0.41,0.041c0.451,0,0.786-0.14,1.003-0.421C83.781,24.701,83.89,24.36,83.89,23.957z"/>
		<path fill="#FCFCFC" d="M90.808,26.014H89.8c0-0.139-0.096-0.531-0.287-1.178h-1.456c-0.197,0.636-0.296,1.029-0.296,1.178h-0.948
			c0-0.082,0.245-0.754,0.736-2.016s0.736-1.958,0.736-2.086h1.191c0,0.12,0.222,0.805,0.667,2.056
			C90.585,25.218,90.808,25.901,90.808,26.014z M89.352,24.234c-0.359-1.084-0.539-1.67-0.539-1.758h-0.05
			c0,0.082-0.185,0.667-0.557,1.758H89.352z"/>
		<path fill="#FCFCFC" d="M94.482,22.986c0,0.502-0.187,0.873-0.56,1.112s-0.83,0.359-1.372,0.359c-0.099,0-0.169-0.002-0.211-0.006
			c0,0.395,0.011,0.916,0.035,1.562H91.49c0.027-0.607,0.041-1.322,0.041-2.146c0-0.756-0.013-1.409-0.041-1.956h0.548
			c0.078,0,0.227-0.003,0.447-0.01c0.22-0.006,0.412-0.01,0.573-0.01c0.399,0,0.736,0.09,1.011,0.271
			C94.345,22.345,94.482,22.619,94.482,22.986z M93.669,23.16c0-0.449-0.299-0.674-0.895-0.674c-0.149,0-0.307,0.016-0.473,0.047
			c0.023,0.397,0.035,0.846,0.035,1.348c0.052,0.005,0.113,0.006,0.183,0.006C93.287,23.888,93.669,23.645,93.669,23.16z"/>
		<path fill="#FCFCFC" d="M98.261,22.986c0,0.502-0.187,0.873-0.559,1.112c-0.373,0.239-0.83,0.359-1.372,0.359
			c-0.099,0-0.169-0.002-0.211-0.006c0,0.395,0.011,0.916,0.035,1.562h-0.885c0.027-0.607,0.041-1.322,0.041-2.146
			c0-0.756-0.013-1.409-0.041-1.956h0.548c0.078,0,0.227-0.003,0.447-0.01c0.221-0.006,0.412-0.01,0.573-0.01
			c0.399,0,0.736,0.09,1.011,0.271C98.123,22.345,98.261,22.619,98.261,22.986z M97.448,23.16c0-0.449-0.299-0.674-0.895-0.674
			c-0.149,0-0.307,0.016-0.473,0.047c0.023,0.397,0.035,0.846,0.035,1.348c0.053,0.005,0.113,0.006,0.183,0.006
			C97.064,23.888,97.448,23.645,97.448,23.16z"/>
		<path fill="#FCFCFC" d="M104.438,23.888c0,0.645-0.197,1.179-0.592,1.604c-0.395,0.425-0.883,0.636-1.465,0.636
			c-0.554,0-1.019-0.195-1.393-0.584c-0.374-0.389-0.561-0.885-0.561-1.485c0-0.645,0.197-1.18,0.592-1.604
			c0.395-0.424,0.883-0.636,1.465-0.636c0.554,0,1.019,0.194,1.393,0.583C104.251,22.789,104.438,23.285,104.438,23.888z
			 M103.568,23.979c0-0.439-0.112-0.795-0.337-1.068c-0.225-0.273-0.502-0.41-0.832-0.41c-0.307,0-0.567,0.137-0.782,0.413
			c-0.214,0.275-0.321,0.622-0.321,1.042c0,0.437,0.112,0.792,0.339,1.066c0.226,0.274,0.502,0.411,0.83,0.411
			c0.307,0,0.567-0.138,0.782-0.415C103.462,24.743,103.568,24.397,103.568,23.979z"/>
		<path fill="#FCFCFC" d="M108.708,26.014h-0.778c0-0.086-0.289-0.541-0.866-1.364c-0.604-0.868-0.95-1.46-1.034-1.78h-0.05
			c0.053,0.46,0.079,0.876,0.079,1.247c0,0.519,0.014,1.151,0.044,1.897h-0.775c0.032-0.651,0.047-1.366,0.047-2.146
			c0-0.766-0.016-1.419-0.047-1.956h0.936c0,0.112,0.259,0.556,0.778,1.333c0.553,0.825,0.869,1.385,0.952,1.679h0.047
			c-0.05-0.468-0.076-0.889-0.076-1.26c0-0.569-0.014-1.153-0.044-1.751h0.788c-0.029,0.521-0.044,1.173-0.044,1.956
			C108.664,24.658,108.679,25.374,108.708,26.014z"/>
	</g>
</g>
</svg>
