<?xml version="1.0" encoding="utf-8"?>
<!-- Generator: Adobe Illustrator 19.2.1, SVG Export Plug-In . SVG Version: 6.00 Build 0)  -->
<svg version="1.1" id="Capa_1" xmlns="http://www.w3.org/2000/svg" xmlns:xlink="http://www.w3.org/1999/xlink" x="0px" y="0px"
	 width="173px" height="71px" viewBox="0 0 173 71" enable-background="new 0 0 173 71" xml:space="preserve">
<g>
	<path d="M161.202,53.872c0,3.662-2.968,6.632-6.629,6.632H17.834c-3.661,0-6.631-2.969-6.631-6.632V18.067
		c0-3.661,2.969-6.631,6.631-6.631h136.74c3.661,0,6.629,2.969,6.629,6.631L161.202,53.872L161.202,53.872z"/>
	<g>
		<path fill="#FFFFFF" d="M50.318,43.87c-0.794,1.76-1.174,2.546-2.196,4.101c-1.427,2.172-3.437,4.876-5.928,4.899
			c-2.214,0.02-2.782-1.441-5.787-1.424c-3.005,0.017-3.632,1.45-5.846,1.43c-2.491-0.023-4.396-2.465-5.823-4.636
			c-3.989-6.073-4.406-13.199-1.946-16.988c1.749-2.692,4.506-4.269,7.1-4.269c2.641,0,4.301,1.448,6.484,1.448
			c2.118,0,3.409-1.45,6.461-1.45c2.308,0,4.753,1.256,6.495,3.43C43.623,33.538,44.55,41.691,50.318,43.87z"/>
		<g>
			<path fill="#FFFFFF" d="M40.52,24.554c1.109-1.424,1.952-3.434,1.646-5.489c-1.811,0.125-3.931,1.277-5.169,2.78
				c-1.123,1.364-2.05,3.389-1.689,5.354C37.286,27.261,39.332,26.08,40.52,24.554z"/>
		</g>
	</g>
	<g>
		<g>
			<path fill="#FFFFFF" d="M62.471,31.159L56.757,47.98h2.617l1.706-5.165h5.533l1.754,5.165h2.689l-5.739-16.821
				C65.318,31.159,62.471,31.159,62.471,31.159z M63.827,33.925c0.193,0.751,0.401,1.531,0.669,2.373l1.54,4.46h-4.383l1.519-4.489
				C63.403,35.541,63.623,34.755,63.827,33.925z"/>
			<path fill="#FFFFFF" d="M78.451,35.52c-1.733,0-3.121,0.669-4.046,1.941l-0.101-1.673h-2.328l0.014,0.214
				c0.068,1.042,0.097,2.189,0.097,3.836v12.965h2.545v-6.05c0.79,0.945,2.05,1.495,3.479,1.495c1.487,0,2.857-0.583,3.856-1.639
				c1.115-1.178,1.703-2.872,1.703-4.895c0-1.788-0.511-3.334-1.478-4.47C81.243,36.132,79.916,35.52,78.451,35.52z M77.817,37.627
				c2.269,0,3.284,2.102,3.284,4.184c0,2.686-1.295,4.354-3.38,4.354c-1.424,0-2.655-0.969-2.998-2.362
				c-0.059-0.216-0.091-0.502-0.091-0.823v-2.047c0-0.185,0.041-0.41,0.081-0.628c0.013-0.07,0.026-0.139,0.037-0.207
				C75.129,38.643,76.388,37.627,77.817,37.627z"/>
			<path fill="#FFFFFF" d="M91.556,35.52c-1.733,0-3.121,0.669-4.046,1.941l-0.101-1.673h-2.327l0.013,0.214
				c0.069,1.043,0.098,2.189,0.098,3.836v12.965h2.545v-6.05c0.79,0.945,2.05,1.495,3.478,1.495c1.487,0,2.858-0.583,3.858-1.639
				c1.113-1.178,1.702-2.872,1.702-4.895c0-1.788-0.512-3.334-1.48-4.47C94.349,36.132,93.021,35.52,91.556,35.52z M90.923,37.627
				c2.267,0,3.284,2.102,3.284,4.184c0,2.686-1.296,4.354-3.38,4.354c-1.423,0-2.656-0.969-2.998-2.362
				c-0.059-0.216-0.09-0.502-0.09-0.823v-2.047c0-0.187,0.041-0.412,0.081-0.63c0.013-0.068,0.025-0.137,0.037-0.205
				C88.234,38.643,89.494,37.627,90.923,37.627z"/>
			<path fill="#FFFFFF" d="M107.974,38.287c-2.375-0.92-3.136-1.643-3.136-2.98c0-1.125,0.894-2.26,2.893-2.26
				c1.648,0,2.703,0.573,2.987,0.75l0.216,0.133l0.718-2.124l-0.142-0.083c-0.426-0.25-1.642-0.832-3.706-0.832
				c-3.245,0-5.513,1.916-5.513,4.658c0,2.212,1.419,3.758,4.467,4.865c2.16,0.807,2.964,1.634,2.964,3.052
				c0,1.605-1.241,2.6-3.235,2.6c-1.299,0-2.636-0.379-3.668-1.04l-0.221-0.142l-0.683,2.173l0.125,0.083
				c0.961,0.641,2.769,1.105,4.301,1.105c4.374,0,5.925-2.667,5.925-4.951C112.267,40.942,111.023,39.49,107.974,38.287z"/>
			<path fill="#FFFFFF" d="M116.848,32.89l-2.496,0.784v2.114h-1.827v2.034h1.827v6.23c0,1.506,0.288,2.562,0.881,3.229
				c0.568,0.623,1.443,0.967,2.462,0.967c0.962,0,1.646-0.19,1.967-0.304l0.143-0.05l-0.122-2.038l-0.244,0.075
				c-0.322,0.099-0.652,0.136-1.184,0.136c-0.986,0-1.407-0.624-1.407-2.089v-6.157h3.07v-2.034h-3.07L116.848,32.89L116.848,32.89z
				"/>
			<path fill="#FFFFFF" d="M126.225,35.52c-3.561,0-6.047,2.658-6.047,6.461c0,3.69,2.406,6.267,5.852,6.267h0.023
				c2.913,0,6.047-2.03,6.047-6.486c0-1.812-0.56-3.368-1.621-4.501C129.412,36.122,127.94,35.52,126.225,35.52z M126.151,37.529
				c2.29,0,3.332,2.232,3.332,4.306c0,2.552-1.423,4.403-3.38,4.403h-0.025c-1.93,0-3.332-1.821-3.332-4.329
				C122.747,39.729,123.8,37.529,126.151,37.529z"/>
			<path fill="#FFFFFF" d="M139.896,35.638l-0.153-0.039c-0.224-0.056-0.407-0.08-0.633-0.08c-1.331,0-2.526,0.784-3.19,2.049
				l-0.075-1.781h-2.284l0.014,0.214c0.068,1.007,0.096,2.138,0.096,3.665l-0.023,8.315h2.545v-6.486
				c0-0.353,0.024-0.687,0.07-0.987c0.287-1.558,1.338-2.564,2.678-2.564c0.26,0,0.466,0.021,0.683,0.043l0.272,0.028
				L139.896,35.638L139.896,35.638z"/>
			<path fill="#FFFFFF" d="M145.618,35.496c-3.388,0-5.754,2.707-5.754,6.583c0,3.733,2.354,6.145,5.998,6.145
				c1.916,0,3.249-0.421,4.029-0.773l0.153-0.069l-0.489-1.896l-0.212,0.085c-0.694,0.282-1.616,0.57-3.188,0.57
				c-1.105,0-3.655-0.365-3.811-3.69l8.215,0.025l0.033-0.163c0.052-0.259,0.076-0.607,0.076-1.062
				C150.666,38.596,149.344,35.496,145.618,35.496z M145.448,37.432c0.775,0,1.404,0.24,1.868,0.713
				c0.732,0.745,0.86,1.843,0.877,2.369h-5.804C142.626,39.044,143.544,37.432,145.448,37.432z"/>
		</g>
		<g>
			<path fill="#FFFFFF" d="M56.757,19.669c0.709-0.094,1.536-0.165,2.441-0.165c1.641,0,2.809,0.331,3.583,0.98
				c0.8,0.649,1.26,1.583,1.26,2.87c0,1.299-0.46,2.362-1.273,3.094c-0.84,0.744-2.205,1.146-3.925,1.146
				c-0.827,0-1.496-0.023-2.087-0.094V19.669z M57.912,26.72c0.289,0.047,0.709,0.047,1.155,0.047
				c2.441,0.011,3.766-1.229,3.766-3.378c0.014-1.902-1.168-3.071-3.583-3.071c-0.59,0-1.037,0.048-1.339,0.107V26.72z"/>
			<path fill="#FFFFFF" d="M68.135,27.653c-1.706,0-3.045-1.134-3.045-2.941c0-1.913,1.404-3.036,3.149-3.036
				c1.825,0,3.058,1.193,3.058,2.93c0,2.126-1.64,3.047-3.149,3.047H68.135z M68.174,26.874c1.103,0,1.93-0.933,1.93-2.233
				c0-0.968-0.538-2.185-1.904-2.185c-1.352,0-1.942,1.134-1.942,2.221c0,1.252,0.788,2.197,1.903,2.197H68.174z"/>
			<path fill="#FFFFFF" d="M73.124,21.806l0.854,2.894c0.17,0.638,0.341,1.24,0.459,1.831h0.039
				c0.144-0.579,0.354-1.193,0.564-1.819l1.037-2.906h0.971l0.985,2.858c0.235,0.674,0.42,1.288,0.564,1.867h0.039
				c0.105-0.579,0.276-1.181,0.486-1.855l0.905-2.87h1.142l-2.048,5.717h-1.05l-0.971-2.729c-0.223-0.649-0.407-1.216-0.565-1.89
				h-0.025c-0.157,0.685-0.354,1.288-0.577,1.902l-1.024,2.717h-1.05l-1.916-5.717H73.124z"/>
			<path fill="#FFFFFF" d="M82.326,23.354c0-0.602-0.014-1.075-0.053-1.548h1.024l0.065,0.934h0.026
				c0.315-0.532,1.05-1.063,2.1-1.063c0.88,0,2.244,0.472,2.244,2.433v3.413h-1.154v-3.295c0-0.921-0.381-1.7-1.471-1.7
				c-0.748,0-1.339,0.484-1.549,1.063c-0.052,0.13-0.079,0.319-0.079,0.484v3.449h-1.155L82.326,23.354L82.326,23.354z"/>
			<path fill="#FFFFFF" d="M89.609,19.138h1.155v8.386h-1.155V19.138z"/>
			<path fill="#FFFFFF" d="M95.267,27.653c-1.706,0-3.045-1.134-3.045-2.941c0-1.913,1.404-3.036,3.15-3.036
				c1.824,0,3.058,1.193,3.058,2.93c0,2.126-1.64,3.047-3.15,3.047H95.267z M95.306,26.874c1.103,0,1.93-0.933,1.93-2.233
				c0-0.968-0.539-2.185-1.903-2.185c-1.352,0-1.943,1.134-1.943,2.221c0,1.252,0.788,2.197,1.904,2.197H95.306z"/>
			<path fill="#FFFFFF" d="M104.363,26.153c0,0.496,0.026,0.98,0.092,1.37h-1.037l-0.105-0.72h-0.039
				c-0.341,0.448-1.037,0.85-1.942,0.85c-1.286,0-1.942-0.814-1.942-1.642c0-1.382,1.364-2.138,3.818-2.126v-0.118
				c0-0.472-0.144-1.334-1.443-1.323c-0.604,0-1.22,0.153-1.667,0.424l-0.263-0.697c0.525-0.295,1.299-0.496,2.1-0.496
				c1.955,0,2.428,1.192,2.428,2.338L104.363,26.153L104.363,26.153z M103.234,24.606c-1.26-0.023-2.691,0.177-2.691,1.288
				c0,0.685,0.499,0.992,1.076,0.992c0.84,0,1.378-0.472,1.562-0.957c0.04-0.106,0.053-0.224,0.053-0.331V24.606z"/>
			<path fill="#FFFFFF" d="M111.699,19.138v6.91c0,0.508,0.014,1.087,0.053,1.477h-1.037l-0.053-0.992h-0.026
				c-0.354,0.637-1.116,1.122-2.152,1.122c-1.536,0-2.73-1.169-2.73-2.906c-0.014-1.913,1.313-3.07,2.848-3.07
				c0.985,0,1.641,0.414,1.917,0.862h0.025v-3.402L111.699,19.138L111.699,19.138z M110.544,24.133c0-0.142-0.013-0.307-0.053-0.448
				c-0.17-0.649-0.8-1.193-1.667-1.193c-1.195,0-1.903,0.945-1.903,2.197c0,1.169,0.644,2.125,1.877,2.125
				c0.775,0,1.483-0.473,1.693-1.24c0.04-0.142,0.053-0.284,0.053-0.448L110.544,24.133L110.544,24.133z"/>
			<path fill="#FFFFFF" d="M118.984,27.653c-1.706,0-3.045-1.134-3.045-2.941c0-1.913,1.405-3.036,3.15-3.036
				c1.825,0,3.059,1.193,3.059,2.93c0,2.126-1.641,3.047-3.149,3.047H118.984z M119.024,26.874c1.103,0,1.929-0.933,1.929-2.233
				c0-0.968-0.538-2.185-1.903-2.185c-1.352,0-1.942,1.134-1.942,2.221c0,1.252,0.787,2.197,1.903,2.197H119.024z"/>
			<path fill="#FFFFFF" d="M123.605,23.354c0-0.602-0.014-1.075-0.053-1.548h1.024l0.066,0.934h0.025
				c0.315-0.532,1.049-1.063,2.1-1.063c0.88,0,2.245,0.472,2.245,2.433v3.413h-1.155v-3.295c0-0.921-0.38-1.7-1.47-1.7
				c-0.748,0-1.339,0.484-1.549,1.063c-0.053,0.13-0.079,0.319-0.079,0.484v3.449h-1.154L123.605,23.354L123.605,23.354z"/>
			<path fill="#FFFFFF" d="M135.062,20.437v1.37h1.653v0.791h-1.653v3.083c0,0.709,0.223,1.11,0.866,1.11
				c0.314,0,0.499-0.023,0.669-0.071l0.053,0.791c-0.223,0.071-0.577,0.142-1.024,0.142c-0.538,0-0.971-0.166-1.247-0.437
				c-0.315-0.319-0.446-0.827-0.446-1.501v-3.119h-0.985v-0.791h0.985v-1.05L135.062,20.437z"/>
			<path fill="#FFFFFF" d="M138.016,19.138h1.154v3.567h0.027c0.183-0.295,0.472-0.567,0.827-0.732
				c0.341-0.189,0.747-0.295,1.181-0.295c0.853,0,2.218,0.472,2.218,2.445v3.401h-1.154V24.24c0-0.933-0.381-1.701-1.47-1.701
				c-0.748,0-1.325,0.472-1.549,1.04c-0.066,0.142-0.079,0.295-0.079,0.497v3.448h-1.154L138.016,19.138L138.016,19.138z"/>
			<path fill="#FFFFFF" d="M145.956,24.842c0.027,1.406,1.011,1.985,2.166,1.985c0.827,0,1.339-0.131,1.76-0.283l0.21,0.732
				c-0.408,0.166-1.116,0.367-2.126,0.367c-1.943,0-3.124-1.17-3.124-2.882c0-1.736,1.142-3.094,2.992-3.094
				c2.075,0,2.611,1.642,2.611,2.693c0,0.212-0.012,0.378-0.039,0.496L145.956,24.842z M149.331,24.098
				c0.012-0.649-0.302-1.689-1.589-1.689c-1.181,0-1.68,0.969-1.771,1.689H149.331z"/>
		</g>
	</g>
</g>
</svg>
