<svg class="mt-3" width="206" height="40" viewBox="0 0 206 40" fill="none" xmlns="http://www.w3.org/2000/svg">
    <rect width="205.592" height="40" fill="#DA291C"/>
    <path d="M24.805 17.683H18.7996V13.4836C18.7996 12.3811 17.98 11.5615 16.8776 11.5615H15.0788H13.9981H11.5974V16.0076H13.9981V28.3739H18.7996V22.2524H24.805V28.3739H29.6065V11.5615H24.805V17.683Z" fill="white"/>
    <path d="M40.6599 11.3218C35.5901 11.3218 31.8911 14.97 31.8911 19.9673C31.8911 24.9646 35.5901 28.6128 40.6599 28.6128C45.7297 28.6128 49.4287 24.9646 49.4287 19.9673C49.4287 14.97 45.7225 11.3218 40.6599 11.3218ZM40.6599 23.9274C38.3752 23.9274 36.6998 22.2447 36.6998 19.9673C36.6998 17.6899 38.3825 16.0072 40.6599 16.0072C42.9446 16.0072 44.62 17.6899 44.62 19.9673C44.62 22.2447 42.9373 23.9274 40.6599 23.9274Z" fill="white"/>
    <path d="M64.2829 19.4813C65.4724 18.756 66.2122 17.5157 66.2122 16.0289C66.2122 13.4323 64.5295 11.561 61.1932 11.561H51.7063V28.3734H61.1932C64.6963 28.3734 66.7417 26.3353 66.7417 23.5211C66.7417 21.7152 65.7843 20.2573 64.2829 19.4813ZM56.1741 15.3036H59.7498C60.8813 15.3036 61.5268 15.8548 61.5268 16.7904C61.5268 17.726 60.8813 18.2773 59.7498 18.2773H56.1741V15.3036ZM60.0835 24.6744H56.1669V21.5556H60.0835C61.2874 21.5556 61.9547 22.1286 61.9547 23.115C61.9547 24.1014 61.2874 24.6744 60.0835 24.6744Z" fill="white"/>
    <path d="M74.0889 11.561L67.4597 28.3734H72.573L73.6392 25.2764H80.3917L81.4579 28.3734H86.6728L80.0436 11.561H74.0889ZM74.9375 21.5048L76.8305 16.0071H77.1932L79.0862 21.5048H74.9375Z" fill="white"/>
    <path d="M109.636 11.561H108.366H106.756H100.751H98.0599H97.03H95.9493H93.5486V16.0071H95.9493V28.3734H100.751V15.9998H106.756V28.3661H111.558V13.4831C111.55 12.2573 110.854 11.561 109.636 11.561Z" fill="white"/>
    <path d="M122.604 11.3218C117.534 11.3218 113.835 14.97 113.835 19.9673C113.835 24.9646 117.534 28.6128 122.604 28.6128C127.674 28.6128 131.373 24.9646 131.373 19.9673C131.373 14.97 127.666 11.3218 122.604 11.3218ZM122.604 23.9274C120.319 23.9274 118.644 22.2447 118.644 19.9673C118.644 17.6899 120.326 16.0072 122.604 16.0072C124.881 16.0072 126.564 17.6899 126.564 19.9673C126.564 22.2447 124.881 23.9274 122.604 23.9274Z" fill="white"/>
    <path d="M152.384 23.9273H147.822V11.561H143.014V23.9273H138.452V11.561H133.65V28.3734H135.906H138.452H152.384H155.358H157.186V11.561H152.384V23.9273Z" fill="white"/>
    <path d="M175.797 15.9998V11.561H159.47V15.9998H165.229V28.3734H170.031V15.9998H175.797Z" fill="white"/>
    <path d="M188.359 28.3734H193.574L186.945 11.561H180.99L174.361 28.3734H179.474L180.54 25.2764H187.293L188.359 28.3734ZM181.839 21.5048L183.732 16.0071H184.094L185.987 21.5048H181.839Z" fill="white"/>
</svg>